<svg width="100" height="66" viewBox="0 0 100 66" fill="none" xmlns="http://www.w3.org/2000/svg">
<path d="M62.0447 40.5921C67.3575 41.3799 71.3702 42.5556 72.6015 43.9642C74.8454 46.4888 71.4994 48.9534 68.6742 49.2938C66.5773 49.5304 62.878 49.5197 56.609 49.5015C54.6808 49.496 52.5094 49.4897 50.0669 49.4897C47.6244 49.4897 45.4531 49.496 43.525 49.5015C37.2559 49.5197 33.5565 49.5304 31.4596 49.2938C28.6303 48.972 25.0259 46.3237 27.4864 43.9642C29.1261 42.4091 32.9493 41.2459 38.0412 40.5921C38.4832 40.5353 38.9032 40.4809 39.3046 40.4289C43.5277 39.8821 45.7061 39.6 50.044 39.6C54.7942 39.6 56.7319 39.8042 62.0447 40.5921Z" fill="#9298A4"/>
<path d="M86.3782 29.8973C86.4974 30.0115 86.5698 30.1653 86.5815 30.3291C86.7295 31.4623 86.695 32.6117 86.4794 33.7342C86.0564 35.6812 83.7792 36.3 81.5729 36.3C77.8952 36.2982 74.2207 36.0847 70.5681 35.6606C69.9722 35.5554 69.8034 34.5634 70.2785 34.1962C72.1615 32.7958 74.2846 31.7435 76.5455 31.0901C80.977 29.7969 83.475 29.6237 85.9356 29.7103C86.1014 29.7165 86.259 29.7831 86.3782 29.8973Z" fill="#9298A4"/>
<path d="M13.6264 29.8973C13.5072 30.0115 13.4348 30.1653 13.4231 30.3291C13.2751 31.4623 13.3096 32.6117 13.5252 33.7342C13.9482 35.6812 16.2254 36.3 18.4318 36.3C22.1094 36.2982 25.7839 36.0847 29.4366 35.6606C30.0324 35.5554 30.2012 34.5634 29.7262 34.1962C27.8431 32.7958 25.72 31.7435 23.4591 31.0901C19.0276 29.7969 16.5296 29.6237 14.069 29.7103C13.9033 29.7165 13.7456 29.7831 13.6264 29.8973Z" fill="#9298A4"/>
<path fill-rule="evenodd" clip-rule="evenodd" d="M50.0023 0C46.5517 0 41.8214 0.212338 37.1388 0.817442C32.5405 1.41166 27.6385 2.42566 24.0642 4.18882C20.0987 6.14494 17.6693 9.56096 16.0031 12.5438C15.2515 13.8893 14.6022 15.2483 14.0449 16.4147L13.975 16.561C13.7674 16.521 13.5529 16.5 13.3335 16.5H10C8.15896 16.5 6.66649 17.9775 6.66649 19.8C6.66649 21.0722 7.39368 22.1762 8.45903 22.727C8.41656 22.7505 8.37381 22.7742 8.33077 22.7978C8.07951 22.936 7.80294 23.0848 7.5158 23.2393L7.51543 23.2395C6.85993 23.5922 6.14928 23.9746 5.55912 24.3278C4.73148 24.8231 3.6079 25.5578 2.81428 26.6006C2.26408 27.3236 1.94448 28.1941 1.74654 28.8201C1.52144 29.5319 1.32905 30.3476 1.16285 31.2016C0.829236 32.9157 0.559471 35.0023 0.364418 37.1702C-0.0223315 41.4688 -0.145406 46.432 0.213196 49.8417C0.555327 53.0949 1.0472 55.6988 1.45995 57.5092C1.66639 58.4147 1.85327 59.1227 1.99215 59.6152C2.0616 59.8614 2.11907 60.054 2.16103 60.1904C2.18201 60.2587 2.19911 60.313 2.2119 60.3529L2.21726 60.3697C2.22132 60.3823 2.22483 60.3931 2.22778 60.4022L2.23319 60.4187L2.23525 60.425L2.2365 60.4287C2.23668 60.4293 2.23685 60.4298 4.99971 59.5314L2.23686 60.4298C2.64375 61.6561 3.72919 62.5227 4.99971 62.6758V62.7C4.99971 64.5225 6.49218 66 8.33324 66H20.0006C21.8416 66 23.3341 64.5225 23.3341 62.7C25.1333 62.6985 26.4389 62.3651 27.6478 62.0564L27.7672 62.026C27.8251 62.0112 27.8828 61.9965 27.9404 61.982C29.1861 61.6671 30.746 61.2941 33.5219 61.0355L33.5247 61.0352C39.9927 60.4274 46.3456 60.225 50.0023 60.225C53.6627 60.225 60.2234 60.4277 66.6838 61.0352L66.6845 61.0353C69.4627 61.296 71.0323 61.6695 72.2834 61.9844C72.3072 61.9904 72.331 61.9964 72.3548 62.0024C72.3797 62.0087 72.4046 62.015 72.4296 62.0213C72.4798 62.0341 72.5302 62.0469 72.5807 62.0597C73.7415 62.3549 74.992 62.6729 76.6705 62.6984V62.7C76.6705 64.5225 78.1629 66 80.004 66H91.6713C93.5124 66 95.0048 64.5225 95.0048 62.7V62.6753C96.2736 62.5208 97.3571 61.6548 97.7635 60.4298L95.0048 59.5328C97.7635 60.4298 97.7637 60.4293 97.7639 60.4287L97.7643 60.4276L97.7672 60.4187L97.7726 60.4022C97.7768 60.3894 97.7821 60.3729 97.7885 60.3529C97.7947 60.3335 97.8019 60.3107 97.8102 60.2845C97.8188 60.2568 97.8286 60.2255 97.8394 60.1904C97.8813 60.054 97.9388 59.8614 98.0082 59.6152C98.1471 59.1227 98.334 58.4147 98.5404 57.5092C98.9532 55.6988 99.4451 53.0949 99.7872 49.8417C100.146 46.4315 100.022 41.4681 99.6349 37.1702C99.4399 35.0025 99.1704 32.9165 98.8378 31.2031C98.6721 30.3496 98.4805 29.5345 98.2565 28.8236C98.0597 28.1985 97.742 27.3296 97.1955 26.6076L97.1903 26.6006C96.3956 25.5563 95.2704 24.8222 94.4426 24.3279C93.8533 23.9761 93.1433 23.595 92.4885 23.2435C92.2003 23.0888 91.9228 22.9399 91.671 22.8017C91.6272 22.7777 91.5836 22.7536 91.5403 22.7297C92.6085 22.1798 93.3381 21.0743 93.3381 19.8C93.3381 17.9775 91.8456 16.5 90.0046 16.5H86.671C86.451 16.5 86.2359 16.5211 86.0277 16.5614L85.961 16.4219C85.4024 15.2528 84.7514 13.8908 83.9981 12.5426C82.3313 9.55993 79.9012 6.14343 75.9371 4.1934C72.3694 2.43831 67.4698 1.42275 62.871 0.825455C58.1882 0.217258 53.4555 0 50.0023 0ZM23.3216 56.1H7.97343L7.96341 56.0562C7.60216 54.4717 7.15647 52.1256 6.8444 49.1583C6.5488 46.3475 6.63615 41.8573 7.00518 37.7558C7.18801 35.7237 7.43247 33.8736 7.70949 32.4502C7.84862 31.7354 7.98566 31.1822 8.10911 30.7918C8.14798 30.6689 8.18003 30.58 8.20328 30.5196C8.3061 30.4348 8.54155 30.2552 9.00822 29.976C9.46914 29.7001 9.94543 29.4442 10.5134 29.1391L10.5145 29.1385C10.8327 28.9676 11.1796 28.7812 11.5687 28.5672C12.0161 28.3211 12.5078 28.0453 13.0204 27.7341C21.0461 26.5654 40.4117 24.4793 51.2612 24.4793C62.1417 24.4793 78.8944 26.5826 87.023 27.7645C87.5226 28.0663 88.0017 28.3344 88.4386 28.5741C88.8298 28.7888 89.1783 28.9755 89.4976 29.1467C90.064 29.4502 90.539 29.7047 90.9992 29.9795C91.4599 30.2546 91.6946 30.4325 91.7987 30.5178C91.8219 30.5785 91.8535 30.6668 91.8918 30.7883C92.015 31.1795 92.1517 31.7335 92.2906 32.4487C92.5671 33.8728 92.8113 35.7235 92.9942 37.7558C93.3633 41.8579 93.4515 46.348 93.156 49.1583C92.8439 52.1256 92.3982 54.4717 92.037 56.0562L92.027 56.1H76.8871C75.9586 56.1 75.3948 55.958 74.0899 55.6291L73.9263 55.5879C72.4591 55.2186 70.5358 54.7671 67.3137 54.4647C60.6152 53.8348 53.8421 53.625 50.0023 53.625C46.1588 53.625 39.5949 53.8351 32.896 54.4646L32.8946 54.4648C29.6718 54.7651 27.7552 55.217 26.2907 55.5872L26.1279 55.6284C24.8302 55.9569 24.2647 56.1 23.3216 56.1ZM80.3967 20.2076C80.3047 20.0176 80.2142 19.8292 80.1253 19.6435C80.1023 19.5956 80.0794 19.5476 80.0564 19.4998C80.017 19.4173 79.9776 19.3349 79.9382 19.2526C79.3689 18.0621 78.809 16.8913 78.1642 15.7374C76.7214 13.1554 75.1149 11.1589 72.9702 10.1039C70.4293 8.85388 66.4367 7.94513 62.0037 7.36937C57.6547 6.80452 53.2161 6.6 50.0023 6.6C46.7858 6.6 42.3489 6.80016 38.0018 7.36192C33.5704 7.93456 29.5803 8.84178 27.0376 10.0961C24.8861 11.1574 23.2788 13.1575 21.8375 15.7377C21.1944 16.889 20.6363 18.0563 20.0686 19.2436C20.0053 19.376 19.9418 19.5087 19.8781 19.6416C19.7847 19.8366 19.6896 20.0347 19.5927 20.2345C29.216 19.1092 42.687 17.8793 51.2612 17.8793C59.7941 17.8793 71.569 19.0946 80.3967 20.2076Z" fill="#9298A4"/>
</svg>
