<svg width="33" height="10" viewBox="0 0 33 10" fill="none" xmlns="http://www.w3.org/2000/svg">
<path d="M22.0091 6.22938H33M22.0091 6.22938H14.4225M22.0091 6.22938V1H1V6.22938H8.58663M8.58663 6.22938C8.58663 6.96419 8.89405 7.66891 9.44127 8.1885C9.98849 8.7081 10.7307 9 11.5046 9C12.2784 9 13.0206 8.7081 13.5678 8.1885C14.1151 7.66891 14.4225 6.96419 14.4225 6.22938M8.58663 6.22938C8.58663 5.49456 8.89405 4.78985 9.44127 4.27025C9.98849 3.75066 10.7307 3.45876 11.5046 3.45876C12.2784 3.45876 13.0206 3.75066 13.5678 4.27025C14.1151 4.78985 14.4225 5.49456 14.4225 6.22938" stroke="#979797" stroke-width="2"/>
</svg>
