<svg width="38" height="40" viewBox="0 0 38 40" fill="none" xmlns="http://www.w3.org/2000/svg">
<path fill-rule="evenodd" clip-rule="evenodd" d="M16.0597 0.775394C16.9522 0.26755 17.9664 0 18.9991 0C20.0317 0 21.0459 0.267535 21.9384 0.775352V0.775352L35.8212 8.67288C36.4831 9.04989 37.0332 9.59017 37.4153 10.2392C37.7975 10.8883 37.9991 11.6239 38 12.3728L38 27.6196C37.9998 28.3687 37.7989 29.105 37.4172 29.7545C37.0355 30.4041 36.4864 30.9445 35.8246 31.3221L21.9402 39.2205C21.0879 39.7047 20.1242 39.9705 19.1403 39.9934C19.0938 39.9978 19.0468 40 18.9992 40C18.9511 40 18.9035 39.9977 18.8565 39.9933C17.8743 39.9696 16.9132 39.7043 16.0624 39.2209L2.17882 31.323C1.51646 30.9458 0.966152 30.4051 0.583978 29.7555C0.201803 29.1059 0.000455799 28.3698 1.74169e-07 27.6204L0 12.3745C0.000934415 11.6256 0.20251 10.8883 0.584661 10.2392C0.966812 9.59017 1.51621 9.05026 2.17817 8.67325L16.0597 0.775394V0.775394ZM20.4626 36.75L20.4683 36.7469V36.7469L34.3489 28.8506C34.569 28.725 34.7516 28.5453 34.8786 28.3292C35.0055 28.1133 35.0723 27.8686 35.0724 27.6196V27.6196V13.129L20.4609 21.5304L20.4626 36.75ZM18.9971 19.0521L33.5433 10.6881L20.4658 3.24867C20.0205 2.99528 19.5143 2.86167 18.9991 2.86167C18.4839 2.86167 17.9778 2.99517 17.5326 3.24856L4.45364 10.6898L18.9971 19.0521ZM2.92759 13.1324L2.92759 27.6188C2.92774 27.868 2.99471 28.1128 3.12182 28.3288C3.2488 28.5447 3.43138 28.7242 3.65138 28.8497M3.65138 28.8497L17.5335 36.7468V36.7468L17.5333 21.5305L2.92759 13.1324" fill="#9298A4"/>
</svg>
