<svg width="64" height="64" viewBox="0 0 64 64" fill="none" xmlns="http://www.w3.org/2000/svg">
<path fill-rule="evenodd" clip-rule="evenodd" d="M0 32C0 14.3328 14.3328 0 32 0C49.6672 0 64 14.3328 64 32C64 49.6672 49.6672 64 32 64C14.3328 64 0 49.6672 0 32ZM32 4.93068C17.056 4.93068 4.93068 17.056 4.93068 32C4.93068 46.944 17.056 59.0693 32 59.0693C46.944 59.0693 59.0693 46.944 59.0693 32C59.0693 17.056 46.944 4.93068 32 4.93068ZM32 17.2285C33.3616 17.2285 34.4653 18.3323 34.4653 19.6939V29.5347H44.3061C45.6677 29.5347 46.7714 30.6384 46.7714 32C46.7714 33.3616 45.6677 34.4653 44.3061 34.4653H34.4653V44.3061C34.4653 45.6677 33.3616 46.7714 32 46.7714C30.6384 46.7714 29.5347 45.6677 29.5347 44.3061V34.4653H19.6939C18.3323 34.4653 17.2285 33.3616 17.2285 32C17.2285 30.6384 18.3323 29.5347 19.6939 29.5347H29.5347V19.6939C29.5347 18.3323 30.6384 17.2285 32 17.2285Z" fill="#979797"/>
</svg>
