<svg width="64" height="66" viewBox="0 0 64 66" fill="none" xmlns="http://www.w3.org/2000/svg">
<path fill-rule="evenodd" clip-rule="evenodd" d="M54.1877 1.01129C52.2968 -0.0379931 50.2826 -0.139537 48.1554 0.121092C46.1343 0.371566 43.6714 1.00114 40.7151 1.76271L33.799 3.53634C30.8428 4.29792 28.3833 4.92749 26.5026 5.68229C24.5193 6.47433 22.8065 7.53716 21.6966 9.38187C20.5799 11.2367 20.4703 13.2202 20.7478 15.2917C21.0115 17.2447 21.6726 19.6141 22.4605 22.437L24.3206 29.0847C25.1084 31.911 25.773 34.277 26.5643 36.0912C27.4036 38.0205 28.5237 39.6622 30.4283 40.7182C32.3192 41.7641 34.3334 41.869 36.4641 41.605C38.4851 41.3579 40.9481 40.725 43.9043 39.9634L50.8204 38.1898C53.7767 37.4316 56.2362 36.7986 58.1168 36.0438C60.1002 35.2518 61.8129 34.189 62.9228 32.3443C64.0395 30.4894 64.1492 28.5059 63.8717 26.4378C63.6079 24.4848 62.9468 22.112 62.1589 19.2891L60.2989 12.6414C59.511 9.81851 58.8464 7.44915 58.0551 5.63491C57.2159 3.70558 56.0889 2.06396 54.1877 1.01129ZM41.8421 6.71804C45.0107 5.90569 47.1449 5.36413 48.796 5.16104C50.3751 4.96472 51.1322 5.13734 51.6837 5.44198C52.2215 5.73984 52.7387 6.25771 53.3382 7.64209C53.9719 9.09754 54.5474 11.125 55.3969 14.1646L57.1577 20.4704C58.0106 23.51 58.5724 25.5408 58.7814 27.1046C58.98 28.5905 58.8019 29.2641 58.5073 29.7481C58.2093 30.2457 57.6681 30.75 56.1951 31.339C54.6605 31.9516 52.5298 32.5067 49.3612 33.3191L42.7842 35.0081C39.6155 35.8204 37.4814 36.362 35.8303 36.5651C34.2477 36.7648 33.4941 36.5922 32.9426 36.2875C32.4048 35.9897 31.8876 35.4684 31.2881 34.0874C30.6544 32.632 30.0789 30.6011 29.2294 27.5616L27.4686 21.2591C26.6157 18.2128 26.0539 16.1853 25.8449 14.6249C25.6463 13.1356 25.8244 12.4654 26.119 11.978C26.417 11.4804 26.9582 10.9761 28.4312 10.3871C29.9658 9.7745 32.0965 9.22278 35.2651 8.40705L41.8421 6.71804Z" fill="#9298A4"/>
<path fill-rule="evenodd" clip-rule="evenodd" d="M3.1809 8.37673C2.53192 8.21952 1.84648 8.31833 1.27001 8.6522C0.693534 8.98607 0.271385 9.52873 0.09312 10.1651C-0.0851447 10.8014 -0.00549773 11.4813 0.315163 12.0605C0.635825 12.6398 1.17227 13.0728 1.81069 13.2678L7.64435 14.8688C9.10363 15.2682 10.1895 16.3581 10.5595 17.6815L17.2461 41.5883C16.9874 41.6389 16.7303 41.6976 16.4754 41.7643C9.70309 43.5007 5.56506 50.233 7.4217 56.8841C9.27148 63.5014 16.3075 67.316 23.0524 65.583C28.958 64.07 32.8596 58.7593 32.5308 53.0187L61.3737 45.6128C61.7003 45.529 62.007 45.3825 62.2763 45.1815C62.5456 44.9806 62.7721 44.7293 62.9431 44.4419C63.1141 44.1544 63.2261 43.8365 63.2727 43.5063C63.3194 43.1761 63.2997 42.8401 63.2149 42.5174C63.1301 42.1947 62.9818 41.8916 62.7785 41.6256C62.5752 41.3595 62.3208 41.1356 62.0299 40.9666C61.7391 40.7977 61.4173 40.687 61.0832 40.6409C60.749 40.5949 60.4089 40.6143 60.0823 40.6981L31.1777 48.1209C30.313 46.4881 29.096 45.0628 27.6127 43.9457C26.1294 42.8286 24.4159 42.047 22.5933 41.656L15.5128 16.3276C15.0782 14.8039 14.2514 13.4175 13.1132 12.3035C11.975 11.1895 10.5641 10.3859 9.01799 9.97097L3.1809 8.37673ZM17.7702 46.6756C21.9219 45.6128 26.0874 47.9923 27.1561 51.8171C28.2181 55.608 25.8887 59.6122 21.7644 60.6717C17.6126 61.7379 13.4472 59.355 12.3784 55.5302C11.3165 51.7392 13.6459 47.735 17.7702 46.6756Z" fill="#9298A4"/>
</svg>
