<svg width="682" height="682" viewBox="0 0 682 682" fill="none" xmlns="http://www.w3.org/2000/svg">
<g filter="url(#filter0_d_532_537)">
<path d="M647 324C647 492.999 509.999 630 341 630C172.001 630 35 492.999 35 324C35 155.001 172.001 18 341 18C509.999 18 647 155.001 647 324ZM96.2 324C96.2 459.199 205.801 568.8 341 568.8C476.199 568.8 585.8 459.199 585.8 324C585.8 188.801 476.199 79.2 341 79.2C205.801 79.2 96.2 188.801 96.2 324Z" fill="#56CA00"/>
</g>
<g filter="url(#filter1_d_532_537)">
<path d="M647 324C647 388.081 626.882 450.545 589.484 502.582C552.087 554.618 499.296 593.601 438.559 614.031C377.822 634.462 312.204 635.309 250.959 616.453C189.715 597.597 135.936 559.99 97.2077 508.936C58.4792 457.882 36.756 395.958 35.1019 331.898C33.4479 267.838 51.9467 204.876 87.9889 151.891C124.031 98.9069 175.798 58.5746 235.987 36.5833C296.177 14.5921 361.752 12.0517 423.462 29.3205L406.97 88.2564C357.601 74.4413 305.141 76.4736 256.99 94.0667C208.838 111.66 167.425 143.926 138.591 186.313C109.757 228.701 94.9583 279.071 96.2816 330.319C97.6048 381.566 114.983 431.106 145.966 471.949C176.949 512.792 219.972 542.878 268.968 557.962C317.963 573.047 370.458 572.369 419.047 556.025C467.637 539.681 509.869 508.495 539.788 466.865C569.706 425.236 585.8 375.265 585.8 324H647Z" fill="#FF4F00"/>
</g>
<g filter="url(#filter2_d_532_537)">
<path d="M647 324C647 401.83 617.343 476.736 564.064 533.471C510.786 590.207 437.89 624.509 360.214 629.396C282.537 634.283 205.917 609.388 145.948 559.777C85.9791 510.166 47.1676 439.568 37.4129 362.352L139.832 349.413C146.296 400.58 172.014 447.361 211.751 480.235C251.489 513.109 302.26 529.605 353.732 526.367C405.203 523.129 453.507 500.399 488.811 462.804C524.115 425.208 543.767 375.573 543.767 324H647Z" fill="#4880FF"/>
</g>
<path d="M281.84 314V303.2H256.56V294.24L278.8 258.16H291.84V295.04H299.12V303.2H291.84V314H281.84ZM265.2 295.04H281.84V268.4H281.2L265.2 295.04ZM315.489 314L334.929 266.72H315.649V276.96H306.689V258.16H345.409V267.2L326.529 314H315.489ZM364.338 314L403.058 258.16H412.338L373.618 314H364.338ZM368.178 288.88C363.644 288.88 360.178 287.547 357.778 284.88C355.431 282.16 354.258 278.213 354.258 273.04C354.258 267.867 355.431 263.947 357.778 261.28C360.178 258.56 363.644 257.2 368.178 257.2C372.711 257.2 376.151 258.56 378.498 261.28C380.844 263.947 382.018 267.867 382.018 273.04C382.018 278.213 380.844 282.16 378.498 284.88C376.151 287.547 372.711 288.88 368.178 288.88ZM368.178 282.8C371.484 282.8 373.138 280.267 373.138 275.2V270.88C373.138 265.813 371.484 263.28 368.178 263.28C364.871 263.28 363.218 265.813 363.218 270.88V275.2C363.218 280.267 364.871 282.8 368.178 282.8ZM408.498 314.96C404.018 314.96 400.578 313.627 398.178 310.96C395.831 308.24 394.658 304.293 394.658 299.12C394.658 293.947 395.831 290.027 398.178 287.36C400.578 284.64 404.018 283.28 408.498 283.28C413.031 283.28 416.471 284.64 418.818 287.36C421.218 290.027 422.418 293.947 422.418 299.12C422.418 304.293 421.218 308.24 418.818 310.96C416.471 313.627 413.031 314.96 408.498 314.96ZM408.498 308.88C411.804 308.88 413.458 306.347 413.458 301.28V296.96C413.458 291.893 411.804 289.36 408.498 289.36C405.191 289.36 403.538 291.893 403.538 296.96V301.28C403.538 306.347 405.191 308.88 408.498 308.88Z" fill="#4880FF"/>
<path d="M302.052 368V364.448H311.412V337.472H311.076L302.628 345.344L300.276 342.8L309.156 334.496H315.444V364.448H324.084V368H302.052ZM341.009 368.576C337.009 368.576 334.081 367.056 332.225 364.016C330.401 360.976 329.489 356.72 329.489 351.248C329.489 345.776 330.401 341.52 332.225 338.48C334.081 335.44 337.009 333.92 341.009 333.92C345.009 333.92 347.921 335.44 349.745 338.48C351.601 341.52 352.529 345.776 352.529 351.248C352.529 356.72 351.601 360.976 349.745 364.016C347.921 367.056 345.009 368.576 341.009 368.576ZM341.009 365.072C342.321 365.072 343.441 364.8 344.369 364.256C345.297 363.712 346.049 362.944 346.625 361.952C347.201 360.96 347.617 359.792 347.873 358.448C348.161 357.104 348.305 355.616 348.305 353.984V348.512C348.305 346.88 348.161 345.392 347.873 344.048C347.617 342.704 347.201 341.536 346.625 340.544C346.049 339.552 345.297 338.784 344.369 338.24C343.441 337.696 342.321 337.424 341.009 337.424C339.697 337.424 338.577 337.696 337.649 338.24C336.721 338.784 335.969 339.552 335.393 340.544C334.817 341.536 334.385 342.704 334.097 344.048C333.841 345.392 333.713 346.88 333.713 348.512V353.984C333.713 355.616 333.841 357.104 334.097 358.448C334.385 359.792 334.817 360.96 335.393 361.952C335.969 362.944 336.721 363.712 337.649 364.256C338.577 364.8 339.697 365.072 341.009 365.072ZM380.975 368H358.991V363.872L369.935 353.792C371.503 352.352 372.815 350.832 373.871 349.232C374.927 347.6 375.455 345.968 375.455 344.336V343.76C375.455 341.904 374.943 340.4 373.919 339.248C372.895 338.096 371.343 337.52 369.263 337.52C368.239 337.52 367.343 337.664 366.575 337.952C365.807 338.24 365.135 338.64 364.559 339.152C364.015 339.664 363.551 340.272 363.167 340.976C362.815 341.648 362.527 342.384 362.303 343.184L358.703 341.792C359.023 340.8 359.455 339.84 359.999 338.912C360.575 337.952 361.279 337.104 362.111 336.368C362.975 335.632 363.999 335.04 365.183 334.592C366.399 334.144 367.823 333.92 369.455 333.92C371.087 333.92 372.543 334.16 373.823 334.64C375.103 335.12 376.175 335.792 377.039 336.656C377.903 337.52 378.559 338.544 379.007 339.728C379.487 340.912 379.727 342.224 379.727 343.664C379.727 344.976 379.535 346.192 379.151 347.312C378.799 348.432 378.303 349.504 377.663 350.528C377.023 351.52 376.239 352.496 375.311 353.456C374.415 354.416 373.439 355.376 372.383 356.336L363.359 364.448H380.975V368Z" fill="#4880FF"/>
<defs>
<filter id="filter0_d_532_537" x="0" y="0" width="682" height="682" filterUnits="userSpaceOnUse" color-interpolation-filters="sRGB">
<feFlood flood-opacity="0" result="BackgroundImageFix"/>
<feColorMatrix in="SourceAlpha" type="matrix" values="0 0 0 0 0 0 0 0 0 0 0 0 0 0 0 0 0 0 127 0" result="hardAlpha"/>
<feOffset dy="17"/>
<feGaussianBlur stdDeviation="17.5"/>
<feColorMatrix type="matrix" values="0 0 0 0 0 0 0 0 0 0 0 0 0 0 0 0 0 0 0.12 0"/>
<feBlend mode="normal" in2="BackgroundImageFix" result="effect1_dropShadow_532_537"/>
<feBlend mode="normal" in="SourceGraphic" in2="effect1_dropShadow_532_537" result="shape"/>
</filter>
<filter id="filter1_d_532_537" x="0" y="0" width="682" height="682" filterUnits="userSpaceOnUse" color-interpolation-filters="sRGB">
<feFlood flood-opacity="0" result="BackgroundImageFix"/>
<feColorMatrix in="SourceAlpha" type="matrix" values="0 0 0 0 0 0 0 0 0 0 0 0 0 0 0 0 0 0 127 0" result="hardAlpha"/>
<feOffset dy="17"/>
<feGaussianBlur stdDeviation="17.5"/>
<feColorMatrix type="matrix" values="0 0 0 0 0 0 0 0 0 0 0 0 0 0 0 0 0 0 0.12 0"/>
<feBlend mode="normal" in2="BackgroundImageFix" result="effect1_dropShadow_532_537"/>
<feBlend mode="normal" in="SourceGraphic" in2="effect1_dropShadow_532_537" result="shape"/>
</filter>
<filter id="filter2_d_532_537" x="2.41309" y="306" width="679.587" height="376" filterUnits="userSpaceOnUse" color-interpolation-filters="sRGB">
<feFlood flood-opacity="0" result="BackgroundImageFix"/>
<feColorMatrix in="SourceAlpha" type="matrix" values="0 0 0 0 0 0 0 0 0 0 0 0 0 0 0 0 0 0 127 0" result="hardAlpha"/>
<feOffset dy="17"/>
<feGaussianBlur stdDeviation="17.5"/>
<feColorMatrix type="matrix" values="0 0 0 0 0 0 0 0 0 0 0 0 0 0 0 0 0 0 0.12 0"/>
<feBlend mode="normal" in2="BackgroundImageFix" result="effect1_dropShadow_532_537"/>
<feBlend mode="normal" in="SourceGraphic" in2="effect1_dropShadow_532_537" result="shape"/>
</filter>
</defs>
</svg>
