<svg width="84" height="66" viewBox="0 0 84 66" fill="none" xmlns="http://www.w3.org/2000/svg">
<path d="M6 30H42V36H6V30ZM0 15H30V21H0V15Z" fill="#9298A4"/>
<path d="M83.7571 31.8149L74.7625 10.817C74.5317 10.2772 74.1475 9.81725 73.6577 9.49408C73.1679 9.17091 72.5939 8.99881 72.0072 8.99913H63.0126V2.99971C63.0126 2.20414 62.6967 1.44115 62.1344 0.878595C61.5722 0.316041 60.8096 0 60.0144 0H12.0431V5.99942H57.0162V43.6638C55.65 44.4575 54.4544 45.5139 53.4983 46.7722C52.5422 48.0305 51.8445 49.4657 51.4455 50.9951H32.6048C31.8751 48.1674 30.1396 45.703 27.7237 44.0639C25.3078 42.4249 22.3774 41.7236 19.4817 42.0916C16.586 42.4596 13.9238 43.8715 11.9942 46.0628C10.0646 48.2542 9 51.0743 9 53.9948C9 56.9152 10.0646 59.7354 11.9942 61.9267C13.9238 64.118 16.586 65.53 19.4817 65.898C22.3774 66.266 25.3078 65.5647 27.7237 63.9256C30.1396 62.2865 31.8751 59.8222 32.6048 56.9945H51.4455C52.0977 59.569 53.5893 61.8523 55.6843 63.4834C57.7793 65.1144 60.358 66 63.0126 66C65.6671 66 68.2459 65.1144 70.3409 63.4834C72.4358 61.8523 73.9274 59.569 74.5796 56.9945H81.0018C81.797 56.9945 82.5596 56.6784 83.1218 56.1159C83.6841 55.5533 84 54.7903 84 53.9948V32.9968C84.0001 32.5904 83.9175 32.1883 83.7571 31.8149ZM21.0377 59.9942C19.8518 59.9942 18.6924 59.6423 17.7063 58.9831C16.7202 58.3239 15.9516 57.3869 15.4978 56.2907C15.0439 55.1944 14.9252 53.9881 15.1565 52.8243C15.3879 51.6606 15.959 50.5916 16.7976 49.7525C17.6362 48.9135 18.7047 48.3421 19.8679 48.1106C21.0311 47.8791 22.2368 47.998 23.3325 48.452C24.4282 48.9061 25.3647 49.6751 26.0236 50.6617C26.6825 51.6483 27.0341 52.8082 27.0341 53.9948C27.0326 55.5854 26.4003 57.1105 25.2761 58.2353C24.1519 59.36 22.6276 59.9926 21.0377 59.9942ZM63.0126 14.9985H70.0284L76.4565 29.9971H63.0126V14.9985ZM63.0126 59.9942C61.8266 59.9942 60.6673 59.6423 59.6812 58.9831C58.695 58.3239 57.9265 57.3869 57.4726 56.2907C57.0188 55.1944 56.9 53.9881 57.1314 52.8243C57.3628 51.6606 57.9339 50.5916 58.7725 49.7525C59.6111 48.9135 60.6795 48.3421 61.8427 48.1106C63.0059 47.8791 64.2116 47.998 65.3073 48.452C66.403 48.9061 67.3395 49.6751 67.9984 50.6617C68.6573 51.6483 69.009 52.8082 69.009 53.9948C69.0074 55.5854 68.3751 57.1105 67.2509 58.2353C66.1267 59.36 64.6024 59.9926 63.0126 59.9942ZM78.0036 50.9951H74.5796C73.9192 48.4256 72.4252 46.1481 70.3319 44.5195C68.2386 42.8909 65.6643 42.0033 63.0126 41.9959V35.9965H78.0036V50.9951Z" fill="#9298A4"/>
</svg>
