<svg width="98" height="66" viewBox="0 0 98 66" fill="none" xmlns="http://www.w3.org/2000/svg">
<path fill-rule="evenodd" clip-rule="evenodd" d="M19.5319 0.000946761H6.53704C2.92673 0.000946761 0 2.81701 0 6.2908V50.283C0 53.7568 2.92674 56.5729 6.53704 56.5729H19.3193C19.4181 56.5815 19.5182 56.5859 19.6193 56.5859C19.7205 56.5859 19.8206 56.5815 19.9194 56.5729H78.0878C78.1866 56.5815 78.2867 56.5859 78.3878 56.5859C78.489 56.5859 78.5891 56.5815 78.6879 56.5729H91.4474C95.0577 56.5729 97.9844 53.7568 97.9844 50.283V38.0243C97.9947 37.9227 98 37.8196 98 37.7153C98 37.611 97.9947 37.5079 97.9844 37.4062V19.1801C97.9947 19.0784 98 18.9753 98 18.871C98 18.7667 97.9947 18.6636 97.9844 18.5619V6.2908C97.9844 2.81701 95.0577 0.000946761 91.4474 0.000946761H78.4503C78.4295 0.000571876 78.4087 0.000383498 78.3878 0.000383498C78.3669 0.000383498 78.3461 0.000571876 78.3253 0.000946761H19.694C19.6671 0.000316835 19.64 0 19.613 0C19.5859 0 19.5589 0.000316835 19.5319 0.000946761ZM75.3913 6.29606H22.6093C22.3641 7.69014 21.9563 9.05659 21.3913 10.369C20.4057 12.6585 18.9611 14.7388 17.1399 16.4911C15.3188 18.2434 13.1567 19.6334 10.7773 20.5817C9.41271 21.1256 7.99196 21.5181 6.5425 21.7539V34.8309C7.99417 35.0667 9.41709 35.4595 10.7837 36.0042C13.1631 36.9525 15.3251 38.3425 17.1463 40.0948C18.9675 41.8471 20.4121 43.9274 21.3977 46.2169C21.961 47.5255 22.3681 48.8879 22.6135 50.2777H75.3935C76.0701 46.4456 77.9664 42.8798 80.8608 40.0948C83.7548 37.3103 87.46 35.4859 91.4419 34.8346V21.7517C87.46 21.1004 83.7548 19.276 80.8608 16.4915C77.9633 13.7035 76.066 10.1329 75.3913 6.29606ZM82.0752 6.29606C82.6544 8.45121 83.8233 10.4393 85.4871 12.0402C87.1472 13.6375 89.2079 14.7607 91.4419 15.3193V6.29606H82.0752ZM91.4419 41.267C89.2079 41.8256 87.1472 42.9488 85.4871 44.5461C83.8265 46.1439 82.6589 48.1274 82.0786 50.2777H91.4419V41.267ZM15.9286 50.2777C15.777 49.7162 15.585 49.1642 15.3532 48.6259C14.6964 47.1002 13.7337 45.7139 12.5201 44.5461C11.3064 43.3784 9.86564 42.4521 8.27995 41.8201C7.71384 41.5945 7.13321 41.4079 6.5425 41.2614V50.2777H15.9286ZM6.5425 15.323C7.13102 15.1766 7.7095 14.9906 8.27357 14.7658C9.85926 14.1338 11.3001 13.2075 12.5137 12.0398C13.7273 10.872 14.69 9.48572 15.3468 7.95999C15.5802 7.41779 15.7734 6.86175 15.9254 6.29606H6.5425V15.323ZM48.9953 15.7226C41.7825 15.7226 35.9353 21.3487 35.9353 28.2888C35.9353 35.2289 41.7825 40.855 48.9953 40.855C56.2081 40.855 62.0553 35.2289 62.0553 28.2888C62.0553 21.3487 56.2081 15.7226 48.9953 15.7226ZM29.3928 28.2888C29.3928 17.872 38.1691 9.42753 48.9953 9.42753C59.8215 9.42753 68.5978 17.872 68.5978 28.2888C68.5978 38.7056 59.8215 47.1501 48.9953 47.1501C38.1691 47.1501 29.3928 38.7056 29.3928 28.2888ZM6.53092 62.8524C6.53092 61.1141 7.99551 59.7049 9.80217 59.7049H88.181C89.9876 59.7049 91.4522 61.1141 91.4522 62.8524C91.4522 64.5908 89.9876 66 88.181 66H9.80217C7.99551 66 6.53092 64.5908 6.53092 62.8524Z" fill="#9298A4"/>
</svg>
