<svg width="24" height="28" viewBox="0 0 24 28" fill="none" xmlns="http://www.w3.org/2000/svg">
<path fill-rule="evenodd" clip-rule="evenodd" d="M0 9.56347C0 4.2387 5.43175 0 12 0C18.5683 0 24 4.2387 24 9.56347C24 12.5653 22.0527 16.2789 19.9197 19.4884C17.7547 22.7463 15.2613 25.6814 13.9243 27.1862C13.7035 27.4377 13.4148 27.6424 13.0815 27.7838C12.7465 27.9259 12.3759 28 12 28C11.6241 28 11.2535 27.9259 10.9185 27.7838C10.5851 27.6424 10.2963 27.4376 10.0755 27.186C8.73852 25.6806 6.24524 22.7445 4.08026 19.4863C1.94742 16.2765 0 12.5631 0 9.56347ZM12 2.0032C6.64525 2.0032 2.40361 5.43769 2.40361 9.56347C2.40361 12.0009 4.05559 15.3142 6.18298 18.5158C8.27166 21.6592 10.6908 24.5112 12 25.9858C13.3091 24.5119 15.7283 21.6609 17.8171 18.5179C19.9443 15.3168 21.5964 12.0032 21.5964 9.56347C21.5964 5.43769 17.3548 2.0032 12 2.0032ZM12.0034 8.00292C10.6778 8.00292 9.60319 8.89852 9.60319 10.0033C9.60319 11.1081 10.6778 12.0037 12.0034 12.0037C13.329 12.0037 14.4037 11.1081 14.4037 10.0033C14.4037 8.89852 13.329 8.00292 12.0034 8.00292ZM7.19957 10.0033C7.19957 7.79218 9.35033 5.99972 12.0034 5.99972C14.6565 5.99972 16.8073 7.79218 16.8073 10.0033C16.8073 12.2144 14.6565 14.0069 12.0034 14.0069C9.35033 14.0069 7.19957 12.2144 7.19957 10.0033Z" fill="#56CA00"/>
</svg>
