<svg width="64" height="64" viewBox="0 0 64 64" fill="none" xmlns="http://www.w3.org/2000/svg">
<path fill-rule="evenodd" clip-rule="evenodd" d="M16.0019 4.57853C9.69295 4.57853 4.57853 9.69295 4.57853 16.0019V47.9981C4.57853 54.307 9.69295 59.4215 16.0019 59.4215H47.9981C54.307 59.4215 59.4215 54.307 59.4215 47.9981V16.0019C59.4215 9.69295 54.307 4.57853 47.9981 4.57853H16.0019ZM0 16.0019C0 7.1643 7.1643 0 16.0019 0H47.9981C56.8357 0 64 7.1643 64 16.0019V47.9981C64 56.8357 56.8357 64 47.9981 64H16.0019C7.1643 64 0 56.8357 0 47.9981V16.0019ZM11.4686 15.3906C15.2358 11.9592 22.0829 7.45173 31.9994 7.45173C41.9159 7.45173 48.763 11.9592 52.5301 15.3906L52.5301 15.3906C53.9182 16.655 54.7608 18.4092 54.88 20.2831C54.9992 22.1561 54.3865 24.0022 53.171 25.4321M53.1693 25.434L48.4172 31.0329L48.4131 31.0378C47.4788 32.1322 46.183 32.8554 44.761 33.0759C43.3405 33.2962 41.8881 33.0002 40.667 32.2419C38.5591 30.9407 35.4201 29.4939 32.0022 29.4939C28.5829 29.4939 25.4427 30.9419 23.3347 32.2435L22.132 30.2957L23.3413 32.2395C22.1194 32.9996 20.6655 33.2964 19.2435 33.0759C17.8214 32.8554 16.5256 32.1322 15.5914 31.0378L15.5881 31.0339L10.8294 25.434C10.8291 25.4337 10.8289 25.4334 10.8286 25.4331C9.61257 24.0031 8.99946 22.1565 9.1187 20.2831C9.23796 18.4092 10.0805 16.655 11.4686 15.3906L11.4686 15.3906M14.5518 18.7754C14.0415 19.2402 13.7318 19.8851 13.688 20.5739C13.6441 21.2627 13.8696 21.9417 14.3169 22.4674L14.3176 22.4683L19.0737 28.0652C19.0742 28.0657 19.0746 28.0662 19.0751 28.0668C19.2979 28.327 19.6064 28.4989 19.945 28.5514C20.2843 28.604 20.6312 28.5332 20.9227 28.3519L20.9292 28.3478C23.3693 26.8412 27.3683 24.9153 32.0022 24.9153C36.6362 24.9153 40.6352 26.8412 43.0752 28.3478L43.0818 28.3519C43.3733 28.5332 43.7202 28.604 44.0594 28.5514C44.3977 28.499 44.7061 28.3273 44.9288 28.0674C44.9294 28.0667 44.9301 28.0659 44.9307 28.0652L49.6803 22.4693L49.6819 22.4674C50.1291 21.9417 50.3546 21.2627 50.3107 20.5739C50.2669 19.885 49.9572 19.2402 49.4469 18.7753C46.2263 15.8418 40.4292 12.0303 31.9994 12.0303C23.5695 12.0303 17.7724 15.8418 14.5518 18.7753" fill="#979797"/>
</svg>
