<svg width="24" height="24" viewBox="0 0 24 24" fill="none" xmlns="http://www.w3.org/2000/svg">
<path fill-rule="evenodd" clip-rule="evenodd" d="M1.62679 1.94803V13.499C2.49342 13.2587 3.84186 13.0436 5.89822 13.0436C8.04159 13.0436 10.4204 13.4997 12.5677 13.9317C12.7092 13.9602 12.8495 13.9885 12.9885 14.0165C15.0226 14.427 16.7857 14.7828 18.1018 14.7828C20.1129 14.7828 21.6499 14.3809 22.3732 14.147V3.39711C20.9994 3.79242 19.5579 3.99652 18.1039 3.99975L18.1018 3.99975C17.2346 3.99975 16.2615 3.81299 15.2759 3.56353C14.4363 3.35104 13.535 3.07869 12.6283 2.80471C12.4641 2.75508 12.2996 2.70539 12.1354 2.656C9.94298 1.99678 7.7701 1.39102 5.89822 1.39102C3.3272 1.39102 2.10348 1.75017 1.62679 1.94803ZM0 23.3045C0 23.6886 0.364169 24 0.813394 24C1.26262 24 1.62679 23.6886 1.62679 23.3045V14.9906C1.7384 14.9446 1.88949 14.8902 2.08758 14.8338C2.74874 14.6453 3.92964 14.4347 5.89822 14.4347C7.82269 14.4347 10.0202 14.8482 12.1951 15.2858C12.3598 15.3189 12.5248 15.3523 12.6898 15.3857C14.6381 15.7799 16.5853 16.1738 18.1018 16.1738C20.8126 16.1738 22.7724 15.5256 23.3611 15.305C23.5503 15.2339 23.7123 15.1169 23.8256 14.9691C23.9388 14.8212 23.9994 14.6484 24 14.4716V2.54916C24 2.41709 23.9621 2.28559 23.8894 2.16904C23.8164 2.05207 23.7108 1.95233 23.5818 1.87871C23.4529 1.80509 23.3047 1.75985 23.1504 1.74704C22.9961 1.73423 22.8405 1.75423 22.6974 1.80527L22.6936 1.80663C21.2402 2.33242 19.6788 2.60511 18.1007 2.60873C17.4744 2.60857 16.6841 2.46927 15.7376 2.22972C14.9422 2.02842 14.0878 1.7703 13.1794 1.49588C13.0131 1.44563 12.8449 1.39484 12.675 1.34375C10.5294 0.698599 8.09419 0 5.89822 0C2.81679 0 1.31897 0.483299 0.658106 0.814157C0.459104 0.912962 0.293695 1.05449 0.178265 1.22474C0.0622862 1.39581 0.000821165 1.5899 5.09062e-06 1.78763L0 23.3045Z" fill="#FF4F00"/>
</svg>
