<svg width="56" height="56" viewBox="0 0 56 56" fill="none" xmlns="http://www.w3.org/2000/svg">
<path d="M55.67 23.685L55.382 22.4862H28.8231V33.5137H44.6917C43.0442 41.1887 35.3991 45.2287 29.1544 45.2287C24.6107 45.2287 19.8211 43.3537 16.6509 40.34C14.9783 38.7245 13.647 36.8013 12.7331 34.6804C11.8192 32.5595 11.3406 30.2826 11.3249 27.98C11.3249 23.335 13.4527 18.6887 16.549 15.6325C19.6452 12.5762 24.3215 10.8662 28.9709 10.8662C34.2957 10.8662 38.1119 13.64 39.5389 14.905L47.5267 7.11C45.1835 5.09 38.7464 0 28.7135 0C20.9729 0 13.5509 2.90875 8.12541 8.21375C2.77133 13.4375 0 20.9912 0 28C0 35.0087 2.62225 42.185 7.81069 47.45C13.3546 53.065 21.2061 56 29.2907 56C36.6466 56 43.6188 53.1725 48.5881 48.0425C53.4733 42.9925 56 36.005 56 28.68C56 25.5962 55.684 23.765 55.67 23.685Z" fill="#4880FF"/>
</svg>
