<svg width="236" height="210" viewBox="0 0 236 210" fill="none" xmlns="http://www.w3.org/2000/svg">
<path fill-rule="evenodd" clip-rule="evenodd" d="M12.2617 199.775V159.879C12.2617 152.86 26.4745 147.168 43.9982 147.168H115.763C133.293 147.168 147.5 152.86 147.5 159.879V201.299L12.2617 199.775Z" fill="#B0D4FF"/>
<path fill-rule="evenodd" clip-rule="evenodd" d="M112.677 5.5851C104.195 1.10836 91.2836 0.503127 89.1892 0.220314C64.0937 -3.16726 48.9896 33.4642 48.1026 44.5663C46.4641 65.0254 35.6904 68.1444 20.5308 80.9545C-9.87451 106.649 -0.961118 136.502 15.6645 147.592C25.6435 154.251 43.2239 147.592 43.2239 147.592C43.4703 147.765 91.3082 120.728 114.888 107.682C150.24 102.633 134.292 16.9905 112.677 5.5851Z" fill="#233862"/>
<path fill-rule="evenodd" clip-rule="evenodd" d="M75.8979 96.713C68.4832 93.479 62.8726 81.4603 62.978 81.4541C66.3506 81.3013 71.315 76.5882 74.1668 57.5146L74.8099 57.9684L98.4766 68.3961C98.4766 68.3961 96.7283 76.0316 95.5938 83.3004C94.6452 89.4076 94.1307 95.258 95.4512 96.12C95.5566 96.1872 83.7713 100.149 75.8979 96.713Z" fill="#FFB27D"/>
<path fill-rule="evenodd" clip-rule="evenodd" d="M98.4762 67.8486C98.4762 67.8486 96.7619 75.5535 95.6494 82.8883C82.0561 80.4084 76.7185 66.6642 74.8096 59.2061L98.4762 67.8486Z" fill="#ED975D"/>
<path fill-rule="evenodd" clip-rule="evenodd" d="M103.419 74.4208C103.419 74.4208 70.2323 70.0269 73.3223 49.7143C76.4123 29.4018 74.2131 15.1523 95.5316 17.0915C116.85 19.0368 119.778 27.3951 120.42 34.4216C121.062 41.4481 112.128 75.0344 103.419 74.4208Z" fill="#FFB27D"/>
<path fill-rule="evenodd" clip-rule="evenodd" d="M118.762 25.3232C118.762 25.3232 98.0985 43.881 84.046 45.378C69.9874 46.875 64.667 42.1692 64.667 42.1692C64.667 42.1692 72.9506 35 77.9378 23.4283C79.4043 20.0174 82.5129 17.6803 86.0881 17.3582C96.1231 16.4549 115.145 16.0444 118.762 25.3232Z" fill="#233862"/>
<path fill-rule="evenodd" clip-rule="evenodd" d="M105.238 22.5693C105.238 22.5693 112.236 29.4265 114.446 34.5119C116.57 39.4232 117.209 51.1607 115.514 55.8234C115.514 55.8234 126.429 34.3378 120.247 23.8997C113.697 12.8274 105.238 22.5693 105.238 22.5693Z" fill="#233862"/>
<path fill-rule="evenodd" clip-rule="evenodd" d="M116.307 203.257C114.554 204.755 109.641 205.65 103.179 206.071C82.8433 207.411 47.1043 204.091 45.7454 200.37C41.0535 187.493 44.3679 183.492 40.4571 163.775C40.0451 161.68 39.5408 159.408 38.9505 156.935C35.6853 143.395 32.5124 138.79 44.0851 117.033C54.5817 97.3293 64.6878 80.6323 65.6717 81.2109C93.3614 97.492 95.3954 85.5977 95.3954 85.5977C95.3954 85.5977 124.313 113.032 123.827 145.07C122.837 210.749 123.557 197.02 116.307 203.257Z" fill="white"/>
<path fill-rule="evenodd" clip-rule="evenodd" d="M47.7321 200.39C42.9955 187.314 44.9482 181.531 41 161.508L51.8128 135.327C51.8128 135.327 50.1801 166.261 59.3306 174.395C68.4811 182.528 96.814 190.1 101.265 196.897C103.413 200.163 104.828 203.429 105.238 206.058C84.7085 207.419 49.1041 204.169 47.7321 200.39Z" fill="#EBF3FF"/>
<path fill-rule="evenodd" clip-rule="evenodd" d="M79.8809 192.867C79.8809 192.867 99.9315 187.966 103.165 189.917C106.398 191.874 114.303 198.989 115.298 201.467C116.288 203.944 108.094 199.583 105.427 198.8C103.706 198.294 99.1571 200.022 96.9135 200.846C87.4475 204.315 81.6511 202.533 81.6511 202.533L79.8809 192.867Z" fill="#FFB27D"/>
<path fill-rule="evenodd" clip-rule="evenodd" d="M30.6628 94.7108C17.616 112.822 -8.25766 190.001 6.57354 200.3C23.2747 211.89 82.575 203.33 82.575 203.33C82.575 203.33 84.5489 194.15 81.805 189.702C79.0551 185.261 34.4393 178.089 32.3799 176.038C30.3206 173.988 58.1191 136.056 58.1191 129.905C58.1191 123.755 65.6716 81.1963 65.6716 81.1963C65.6716 81.1963 39.9269 81.8437 30.6628 94.7108Z" fill="white"/>
<path fill-rule="evenodd" clip-rule="evenodd" d="M103.548 196.225C103.548 196.225 108.072 201.808 109.556 202.473C111.04 203.138 112 202.973 112 202.973L108.953 197.725L103.548 196.225Z" fill="#FFB27D"/>
<path fill-rule="evenodd" clip-rule="evenodd" d="M101.857 191.149L115.381 197.125C115.381 197.125 114.803 197.98 113.142 197.912C111.475 197.844 107.275 196.444 107.275 196.444L101.857 191.149Z" fill="#FFB27D"/>
<path fill-rule="evenodd" clip-rule="evenodd" d="M110.31 209.757H206.474L235.405 137.019H139.387L110.31 209.757Z" fill="#FDC748"/>
<path fill-rule="evenodd" clip-rule="evenodd" d="M206.667 206.374H79.8809V209.757H205.543L206.667 206.374Z" fill="#E6B137"/>
<path fill-rule="evenodd" clip-rule="evenodd" d="M181.111 173.385C181.886 171.052 180.329 169.159 177.634 169.159C174.945 169.159 172.138 171.052 171.363 173.385C170.595 175.719 172.151 177.617 174.84 177.617C177.536 177.617 180.342 175.719 181.111 173.385Z" fill="white"/>
</svg>
