<svg width="36" height="36" viewBox="0 0 36 36" fill="none" xmlns="http://www.w3.org/2000/svg">
<path fill-rule="evenodd" clip-rule="evenodd" d="M31.7014 0H3.94287C1.75349 0 0.0198134 1.79 0.0198134 4L0 32C0 34.21 1.75349 36 3.94287 36H31.7014C33.8908 36 35.6641 34.21 35.6641 32V4C35.6641 1.79 33.8908 0 31.7014 0ZM31.7014 24.0001H23.7761C23.7761 27.3101 21.1112 30.0001 17.8321 30.0001C14.5529 30.0001 11.888 27.3101 11.888 24.0001H3.94286V4.00012H31.7014V24.0001ZM21.7946 13.9999H25.7573L17.8319 21.9999L9.90657 13.9999H13.8692V7.99988H21.7946V13.9999Z" fill="#0047E1"/>
</svg>
