<svg width="20" height="43" viewBox="0 0 20 43" fill="none" xmlns="http://www.w3.org/2000/svg">
<path d="M12 0.333334C10.5273 0.333334 9.33335 1.52724 9.33335 3C9.33335 4.47276 10.5273 5.66667 12 5.66667C13.4728 5.66667 14.6667 4.47276 14.6667 3C14.6667 1.52724 13.4728 0.333333 12 0.333334ZM0.50001 17L0.113646 16.6826C0.0152479 16.8024 -0.0220216 16.9611 0.0127493 17.1121C0.0475184 17.2632 0.150395 17.3896 0.29126 17.4543L0.50001 17ZM19 25.5L19.4603 25.6953C19.5659 25.4463 19.4545 25.1586 19.2088 25.0457L19 25.5ZM11.0387 3.38263C10.8634 3.59601 10.8943 3.91108 11.1076 4.08636C11.321 4.26164 11.6361 4.23075 11.8114 4.01737L11.0387 3.38263ZM10.6614 5.41737C10.8367 5.20399 10.8058 4.88892 10.5924 4.71364C10.379 4.53836 10.0639 4.56925 9.88865 4.78263L10.6614 5.41737ZM8.73865 6.18263C8.56337 6.39601 8.59426 6.71108 8.80764 6.88636C9.02103 7.06164 9.3361 7.03075 9.51138 6.81737L8.73865 6.18263ZM8.36138 8.21737C8.53665 8.00399 8.50577 7.68892 8.29238 7.51364C8.079 7.33836 7.76393 7.36925 7.58865 7.58263L8.36138 8.21737ZM6.43865 8.98263C6.26337 9.19601 6.29426 9.51108 6.50764 9.68636C6.72103 9.86164 7.0361 9.83075 7.21138 9.61737L6.43865 8.98263ZM6.06138 11.0174C6.23665 10.804 6.20576 10.4889 5.99238 10.3136C5.779 10.1384 5.46393 10.1692 5.28865 10.3826L6.06138 11.0174ZM4.13865 11.7826C3.96337 11.996 3.99426 12.3111 4.20764 12.4864C4.42102 12.6616 4.7361 12.6308 4.91137 12.4174L4.13865 11.7826ZM3.76137 13.8174C3.93665 13.604 3.90576 13.2889 3.69238 13.1136C3.479 12.9384 3.16393 12.9692 2.98865 13.1826L3.76137 13.8174ZM1.83865 14.5826C1.66337 14.796 1.69426 15.1111 1.90764 15.2864C2.12102 15.4616 2.43609 15.4308 2.61137 15.2174L1.83865 14.5826ZM1.46137 16.6174C1.63665 16.404 1.60576 16.0889 1.39238 15.9136C1.179 15.7384 0.863926 15.7692 0.688647 15.9826L1.46137 16.6174ZM1.21626 17.8793C1.46718 17.9946 1.76406 17.8847 1.87935 17.6337C1.99464 17.3828 1.88468 17.086 1.63376 16.9707L1.21626 17.8793ZM3.48376 17.8207C3.23283 17.7054 2.93596 17.8153 2.82067 18.0662C2.70538 18.3172 2.81534 18.614 3.06626 18.7293L3.48376 17.8207ZM4.91626 19.5793C5.16718 19.6946 5.46406 19.5847 5.57935 19.3338C5.69464 19.0828 5.58468 18.786 5.33376 18.6707L4.91626 19.5793ZM7.18376 19.5207C6.93283 19.4054 6.63596 19.5153 6.52067 19.7662C6.40538 20.0172 6.51533 20.314 6.76626 20.4293L7.18376 19.5207ZM8.61626 21.2793C8.86718 21.3946 9.16405 21.2847 9.27934 21.0337C9.39463 20.7828 9.28468 20.486 9.03376 20.3707L8.61626 21.2793ZM10.8838 21.2207C10.6328 21.1054 10.336 21.2153 10.2207 21.4662C10.1054 21.7172 10.2153 22.014 10.4663 22.1293L10.8838 21.2207ZM12.3163 22.9793C12.5672 23.0946 12.8641 22.9847 12.9793 22.7337C13.0946 22.4828 12.9847 22.186 12.7338 22.0707L12.3163 22.9793ZM14.5838 22.9207C14.3328 22.8054 14.036 22.9153 13.9207 23.1663C13.8054 23.4172 13.9153 23.714 14.1663 23.8293L14.5838 22.9207ZM16.0163 24.6793C16.2672 24.7946 16.5641 24.6847 16.6793 24.4338C16.7946 24.1828 16.6847 23.886 16.4338 23.7707L16.0163 24.6793ZM18.2838 24.6207C18.0328 24.5054 17.736 24.6153 17.6207 24.8663C17.5054 25.1172 17.6153 25.414 17.8663 25.5293L18.2838 24.6207ZM18.1022 26.336C17.9944 26.5902 18.113 26.8837 18.3672 26.9915C18.6214 27.0994 18.9149 26.9807 19.0228 26.7265L18.1022 26.336ZM18.1478 28.789C18.2556 28.5348 18.137 28.2413 17.8828 28.1335C17.6286 28.0256 17.3351 28.1443 17.2272 28.3985L18.1478 28.789ZM16.3522 30.461C16.2444 30.7152 16.363 31.0087 16.6172 31.1165C16.8714 31.2244 17.1649 31.1057 17.2728 30.8515L16.3522 30.461ZM16.3978 32.914C16.5056 32.6598 16.387 32.3663 16.1328 32.2585C15.8786 32.1506 15.5851 32.2693 15.4772 32.5235L16.3978 32.914ZM14.6022 34.586C14.4944 34.8402 14.613 35.1337 14.8672 35.2415C15.1214 35.3494 15.415 35.2307 15.5228 34.9765L14.6022 34.586ZM14.6478 37.039C14.7556 36.7848 14.637 36.4913 14.3828 36.3835C14.1286 36.2756 13.8351 36.3943 13.7272 36.6485L14.6478 37.039ZM12.8522 38.711C12.7444 38.9652 12.863 39.2587 13.1172 39.3665C13.3715 39.4744 13.665 39.3557 13.7728 39.1015L12.8522 38.711ZM12.8978 41.164C13.0057 40.9098 12.887 40.6163 12.6328 40.5085C12.3786 40.4006 12.0851 40.5193 11.9772 40.7735L12.8978 41.164ZM11.6137 2.68263L11.0387 3.38263L11.8114 4.01737L12.3864 3.31737L11.6137 2.68263ZM9.88865 4.78263L8.73865 6.18263L9.51138 6.81737L10.6614 5.41737L9.88865 4.78263ZM7.58865 7.58263L6.43865 8.98263L7.21138 9.61737L8.36138 8.21737L7.58865 7.58263ZM5.28865 10.3826L4.13865 11.7826L4.91137 12.4174L6.06138 11.0174L5.28865 10.3826ZM2.98865 13.1826L1.83865 14.5826L2.61137 15.2174L3.76137 13.8174L2.98865 13.1826ZM0.688647 15.9826L0.113646 16.6826L0.886374 17.3174L1.46137 16.6174L0.688647 15.9826ZM0.29126 17.4543L1.21626 17.8793L1.63376 16.9707L0.70876 16.5457L0.29126 17.4543ZM3.06626 18.7293L4.91626 19.5793L5.33376 18.6707L3.48376 17.8207L3.06626 18.7293ZM6.76626 20.4293L8.61626 21.2793L9.03376 20.3707L7.18376 19.5207L6.76626 20.4293ZM10.4663 22.1293L12.3163 22.9793L12.7338 22.0707L10.8838 21.2207L10.4663 22.1293ZM14.1663 23.8293L16.0163 24.6793L16.4338 23.7707L14.5838 22.9207L14.1663 23.8293ZM17.8663 25.5293L18.7912 25.9543L19.2088 25.0457L18.2838 24.6207L17.8663 25.5293ZM18.5397 25.3047L18.1022 26.336L19.0228 26.7265L19.4603 25.6953L18.5397 25.3047ZM17.2272 28.3985L16.3522 30.461L17.2728 30.8515L18.1478 28.789L17.2272 28.3985ZM15.4772 32.5235L14.6022 34.586L15.5228 34.9765L16.3978 32.914L15.4772 32.5235ZM13.7272 36.6485L12.8522 38.711L13.7728 39.1015L14.6478 37.039L13.7272 36.6485ZM11.9772 40.7735L11.5397 41.8047L12.4603 42.1953L12.8978 41.164L11.9772 40.7735Z" fill="#56CA00"/>
</svg>
