<svg width="40" height="38" viewBox="0 0 40 38" fill="none" xmlns="http://www.w3.org/2000/svg">
<path d="M12.0029 18.3247C13.4768 18.3247 14.6716 17.1085 14.6716 15.6083C14.6716 14.1081 13.4768 12.8919 12.0029 12.8919C10.529 12.8919 9.33418 14.1081 9.33418 15.6083C9.33418 17.1085 10.529 18.3247 12.0029 18.3247Z" fill="#9298A4"/>
<path d="M20.0014 18.3247C21.4753 18.3247 22.6701 17.1085 22.6701 15.6083C22.6701 14.1081 21.4753 12.8919 20.0014 12.8919C18.5275 12.8919 17.3327 14.1081 17.3327 15.6083C17.3327 17.1085 18.5275 18.3247 20.0014 18.3247Z" fill="#9298A4"/>
<path d="M28.0025 18.3247C29.4763 18.3247 30.6712 17.1085 30.6712 15.6083C30.6712 14.1081 29.4763 12.8919 28.0025 12.8919C26.5286 12.8919 25.3338 14.1081 25.3338 15.6083C25.3338 17.1085 26.5286 18.3247 28.0025 18.3247Z" fill="#9298A4"/>
<path fill-rule="evenodd" clip-rule="evenodd" d="M32.6746 1.09992e-05C34.6157 0.00564294 36.4757 0.793009 37.8483 2.1901C39.2209 3.58719 39.9945 5.48043 40 7.45621L40 7.46393L40 23.7579C39.9945 25.7336 39.2209 27.6269 37.8483 29.024C36.4758 30.421 34.6157 31.2084 32.6746 31.214L32.667 31.2141L19.6282 31.2141L12.3738 37.3705C11.5791 38.0449 10.4729 38.1905 9.53584 37.7439C8.59882 37.2973 8.00024 36.3393 8.00024 35.2862V31.2141H7.32539C5.38427 31.2084 3.52425 30.421 2.15167 29.024C0.779095 27.6269 0.00554393 25.7336 2.16125e-05 23.7579L0 23.7501L1.08063e-05 7.45621C0.00553312 5.48043 0.779094 3.58719 2.15167 2.1901C3.52425 0.793008 5.38428 0.00564294 7.32539 2.19985e-05L7.33297 0L32.6746 1.09992e-05ZM10.6664 28.5003H7.33297C6.09634 28.4967 4.91137 27.9951 4.03693 27.105C3.1625 26.215 2.66969 25.0088 2.66617 23.7501V7.46393C2.66969 6.20521 3.1625 4.99908 4.03693 4.10903C4.91137 3.21898 6.09634 2.71737 7.33297 2.71379H32.667C33.9037 2.71737 35.0886 3.21898 35.9631 4.10903C36.8375 4.99908 37.3303 6.20521 37.3338 7.46393V23.7501C37.3303 25.0088 36.8375 26.215 35.9631 27.105C35.0886 27.9951 33.9037 28.4967 32.667 28.5003H18.9041C18.7479 28.5002 18.5966 28.5561 18.4766 28.658L10.6664 35.2862V28.5003Z" fill="#9298A4"/>
<ellipse cx="32.4464" cy="30.2174" rx="7.46688" ry="7.60023" fill="#FF4F00"/>
</svg>
