<svg width="64" height="64" viewBox="0 0 64 64" fill="none" xmlns="http://www.w3.org/2000/svg">
<path d="M32.4476 0.00297312C14.4515 -0.240081 -0.240092 14.4508 0.00297326 32.4461C0.242962 49.7045 14.2962 63.757 31.5554 63.997C49.5545 64.2431 64.2431 49.5522 63.9969 31.5569C63.76 14.2955 49.7068 0.242951 32.4476 0.00297312ZM51.896 50.3444C51.8347 50.4107 51.7596 50.4626 51.676 50.4966C51.5924 50.5306 51.5023 50.5458 51.4121 50.5411C51.322 50.5364 51.234 50.512 51.1544 50.4694C51.0747 50.4269 51.0055 50.3674 50.9514 50.2952C49.5754 48.4949 47.8903 46.9537 45.9747 45.7433C42.058 43.2297 37.0951 41.8452 32.0015 41.8452C26.9079 41.8452 21.945 43.2297 18.0283 45.7433C16.1128 46.9531 14.4277 48.4939 13.0516 50.2936C12.9975 50.3659 12.9282 50.4254 12.8486 50.4679C12.769 50.5104 12.681 50.5349 12.5909 50.5396C12.5007 50.5443 12.4106 50.5291 12.327 50.4951C12.2434 50.4611 12.1683 50.4091 12.107 50.3428C7.59289 45.47 5.03581 39.1028 4.92582 32.4615C4.67507 17.4921 16.9591 4.96251 31.9354 4.92559C46.9116 4.88867 59.0772 17.0491 59.0772 32C59.0823 38.8015 56.5173 45.3538 51.896 50.3444Z" fill="#979797"/>
<path d="M31.9984 14.7754C28.9643 14.7754 26.2209 15.9124 24.2715 17.9787C22.3221 20.0449 21.3482 22.902 21.5682 25.9683C22.0144 32.007 26.6933 36.9304 31.9984 36.9304C37.3035 36.9304 41.9732 32.007 42.4286 25.9698C42.6564 22.9328 41.6901 20.1018 39.7084 17.9971C37.7513 15.9201 35.0125 14.7754 31.9984 14.7754Z" fill="#979797"/>
</svg>
