<svg width="38" height="38" viewBox="0 0 38 38" fill="none" xmlns="http://www.w3.org/2000/svg">
<g clip-path="url(#clip0_130_1835)">
<path d="M17.3918 38C14.1193 38 11.4543 35.3368 11.4543 32.0625C11.4543 31.407 11.9863 30.875 12.6418 30.875C13.2973 30.875 13.8293 31.407 13.8293 32.0625C13.8293 34.0276 15.4285 35.625 17.3918 35.625C19.3552 35.625 20.9543 34.0276 20.9543 32.0625C20.9543 31.407 21.4863 30.875 22.1418 30.875C22.7973 30.875 23.3293 31.407 23.3293 32.0625C23.3293 35.3368 20.6647 38 17.3918 38Z" fill="#718EBF"/>
<path d="M30.4543 33.25H4.32933C2.80147 33.25 1.55859 32.0071 1.55859 30.4793C1.55859 29.6684 1.91171 28.9007 2.5275 28.3733C2.56721 28.3385 2.60983 28.3069 2.65419 28.2782C4.97845 26.25 6.30859 23.3319 6.30859 20.2507V15.8332C6.30859 9.72179 11.2818 4.75 17.3918 4.75C17.6452 4.75 17.9192 4.75464 18.1726 4.79755C18.82 4.90511 19.2572 5.51799 19.1493 6.16393C19.0417 6.80986 18.4178 7.24706 17.7829 7.13921C17.6562 7.11862 17.5171 7.125 17.3918 7.125C12.5914 7.125 8.68359 11.0311 8.68359 15.8332V20.2507C8.68359 24.0762 7.00671 27.6958 4.08725 30.1798C4.06348 30.1989 4.04289 30.2163 4.01738 30.2337C3.97476 30.2876 3.93359 30.37 3.93359 30.4793C3.93359 30.6944 4.11421 30.875 4.32933 30.875H30.4543C30.6697 30.875 30.8504 30.6944 30.8504 30.4793C30.8504 30.3682 30.8092 30.2876 30.7648 30.2337C30.7411 30.2163 30.7205 30.1989 30.6967 30.1798C27.7755 27.694 26.1004 24.0762 26.1004 20.2507V18.5251C26.1004 17.8696 26.6324 17.3376 27.2879 17.3376C27.9434 17.3376 28.4754 17.8696 28.4754 18.5251V20.2507C28.4754 23.3337 29.8069 26.2531 32.1344 28.2831C32.177 28.3116 32.2182 28.3417 32.2562 28.375C32.8722 28.9007 33.2254 29.6684 33.2254 30.4793C33.2254 32.0071 31.9825 33.25 30.4543 33.25Z" fill="#718EBF"/>
<path d="M28.4754 15.8332C24.1101 15.8332 20.5586 12.282 20.5586 7.91676C20.5586 3.55148 24.1101 0 28.4754 0C32.8406 0 36.3918 3.55148 36.3918 7.91676C36.3918 12.282 32.8406 15.8332 28.4754 15.8332ZM28.4754 2.375C25.4193 2.375 22.9336 4.86075 22.9336 7.91676C22.9336 10.9725 25.4193 13.4582 28.4754 13.4582C31.5311 13.4582 34.0168 10.9725 34.0168 7.91676C34.0168 4.86075 31.5311 2.375 28.4754 2.375Z" fill="#718EBF"/>
</g>
<defs>
<clipPath id="clip0_130_1835">
<rect width="38" height="38" fill="white"/>
</clipPath>
</defs>
</svg>
