<svg width="64" height="64" viewBox="0 0 64 64" fill="none" xmlns="http://www.w3.org/2000/svg">
<path fill-rule="evenodd" clip-rule="evenodd" d="M18.0785 0.341372C18.7074 -0.0751003 19.4928 -0.112961 20.1541 0.241312L23.4667 2.01592L26.7793 0.241312C27.3804 -0.0807043 28.088 -0.0804196 28.6889 0.24208L31.9984 2.01837L35.3627 0.236649C35.9642 -0.0819032 36.6706 -0.0786915 37.2695 0.245319L40.5349 2.01172L43.8129 0.244016C44.4151 -0.080698 45.1251 -0.0813681 45.7278 0.242209L49.0345 2.01759L52.3859 0.237771C52.9851 -0.0804501 53.6889 -0.0791866 54.2872 0.241184L57.601 2.01593L60.9124 0.24144C61.5737 -0.112944 62.3591 -0.0751602 62.9881 0.341297C63.6171 0.757754 64 1.49349 64 2.28572V34.2857H59.7333V5.9846L58.5556 6.61571C57.9551 6.93753 57.2482 6.93763 56.6475 6.61596L53.3293 4.83892L49.9768 6.61938C49.3769 6.93795 48.6722 6.93631 48.0736 6.61494L44.7741 4.84347L41.4925 6.61313C40.8883 6.93894 40.1757 6.93846 39.5719 6.61183L36.2979 4.84077L32.9373 6.6205C32.338 6.93793 31.6343 6.93592 31.0366 6.61507L27.7325 4.8417L24.4208 6.61584C23.8202 6.93758 23.1133 6.93758 22.5127 6.61584L21.3334 5.98408V43.4286H17.0667V2.28572C17.0667 1.49354 17.4496 0.757844 18.0785 0.341372Z" fill="#979797"/>
<path fill-rule="evenodd" clip-rule="evenodd" d="M59.7333 50.2857V34.2857H64V50.2857C64 53.923 62.6514 57.4113 60.251 59.9832C57.8505 62.5551 54.5948 64 51.2 64H12.8001C10.1378 64 7.89571 63.5346 6.05388 62.5419C4.17804 61.531 2.84288 60.0398 1.92828 58.2322C0.188509 54.7938 0.000317895 50.2176 8.34183e-05 45.7227C-0.00342864 45.1223 0.10399 44.527 0.316191 43.9711C0.529784 43.4116 0.845262 42.9033 1.24421 42.4758C1.64315 42.0484 2.11757 41.7104 2.63977 41.4815C3.15855 41.2542 3.71416 41.1391 4.27456 41.1429H40.5334C41.7116 41.1429 42.6667 42.1662 42.6667 43.4286V50.2857C42.6667 52.7106 43.5657 55.0361 45.166 56.7507C46.7664 58.4653 48.9368 59.4286 51.2 59.4286C53.4632 59.4286 55.6337 58.4653 57.234 56.7507C58.8343 55.0361 59.7333 52.7106 59.7333 50.2857ZM41.6594 59.4286C39.566 56.921 38.4 53.6678 38.4 50.2857V45.7143H4.26674C4.26674 50.3595 4.52874 53.7798 5.67921 56.0535C6.21028 57.1031 6.93128 57.8976 7.97118 58.4581C9.04511 59.0368 10.5783 59.4286 12.8001 59.4286H41.6594Z" fill="#979797"/>
<path fill-rule="evenodd" clip-rule="evenodd" d="M25.6 16C25.6 14.7376 26.5552 13.7143 27.7334 13.7143H53.3333C54.5116 13.7143 55.4667 14.7376 55.4667 16C55.4667 17.2624 54.5116 18.2857 53.3333 18.2857H27.7334C26.5552 18.2857 25.6 17.2624 25.6 16ZM34.1334 27.4286C34.1334 26.1662 35.0885 25.1429 36.2667 25.1429H53.3333C54.5116 25.1429 55.4667 26.1662 55.4667 27.4286C55.4667 28.6909 54.5116 29.7143 53.3333 29.7143H36.2667C35.0885 29.7143 34.1334 28.6909 34.1334 27.4286Z" fill="#979797"/>
</svg>
