<svg width="70" height="66" viewBox="0 0 70 66" fill="none" xmlns="http://www.w3.org/2000/svg">
<path fill-rule="evenodd" clip-rule="evenodd" d="M6.87836 5.08452C5.84526 5.08452 5.00777 5.93485 5.00777 6.98378V10.7908C5.00777 11.8397 5.84526 12.6901 6.87836 12.6901H63.1216C64.1547 12.6901 64.9922 11.8397 64.9922 10.7908V6.98378C64.9922 5.93485 64.1547 5.08452 63.1216 5.08452H6.87836ZM0 6.98378C0 3.12675 3.07955 0 6.87836 0H63.1216C66.9205 0 70 3.12675 70 6.98378V10.7908C70 13.9868 67.8856 16.6814 64.9995 17.5111V57.1127L64.9995 57.1203C64.9926 59.4732 64.0689 61.7277 62.4303 63.3914C60.7917 65.0552 58.5712 65.993 56.2539 66L56.2464 66H13.7515L13.744 66C11.4266 65.993 9.20614 65.0552 7.56751 63.3914C5.92888 61.7277 5.00525 59.4732 4.99832 57.1203L4.99831 57.1127V17.5105C2.11339 16.6801 0 13.986 0 10.7908V6.98378ZM10.0061 17.7746V57.1085C10.0099 58.1169 10.4062 59.083 11.1085 59.7961C11.8107 60.5091 12.7619 60.9114 13.7549 60.9155H56.243C57.2359 60.9114 58.1871 60.5091 58.8893 59.7961C59.5915 59.0832 59.9877 58.1174 59.9917 57.1092V17.7746H10.0061ZM34.9978 25.3816C36.3807 25.3816 37.5017 26.5198 37.5017 27.9238V44.6323L43.2311 38.815C44.2089 37.8222 45.7943 37.8222 46.7721 38.815C47.75 39.8079 47.75 41.4175 46.7721 42.4103L36.7719 52.5638C35.7941 53.5567 34.2087 53.5567 33.2309 52.5638L23.2307 42.4103C22.2528 41.4175 22.2528 39.8079 23.2307 38.815C24.2085 37.8222 25.7939 37.8222 26.7717 38.815L32.4939 44.625V27.9238C32.4939 26.5198 33.6149 25.3816 34.9978 25.3816Z" fill="#9298A4"/>
</svg>
