<svg width="50" height="40" viewBox="0 0 50 40" fill="none" xmlns="http://www.w3.org/2000/svg">
<path fill-rule="evenodd" clip-rule="evenodd" d="M9.96527 0.000502077H3.33522C1.49323 0.000502077 0 1.49389 0 3.33608V26.6656C0 28.5078 1.49323 30.0012 3.33522 30.0012H9.85678C9.90719 30.0058 9.95825 30.0081 10.0099 30.0081C10.0615 30.0081 10.1125 30.0058 10.1629 30.0012H39.8407C39.8911 30.0058 39.9422 30.0081 39.9938 30.0081C40.0454 30.0081 40.0965 30.0058 40.1469 30.0012H46.6568C48.4988 30.0012 49.9921 28.5078 49.9921 26.6656V20.1647C49.9973 20.1108 50 20.0561 50 20.0008C50 19.9455 49.9973 19.8908 49.9921 19.8369V10.1714C49.9973 10.1175 50 10.0628 50 10.0075C50 9.95218 49.9973 9.89751 49.9921 9.84359V3.33608C49.9921 1.49389 48.4988 0.000502077 46.6568 0.000502077H40.0257C40.0151 0.000303272 40.0044 0.000203373 39.9938 0.000203373C39.9831 0.000203373 39.9725 0.000303272 39.9619 0.000502077H10.048C10.0342 0.000168021 10.0204 0 10.0066 0C9.99279 0 9.97901 0.000168021 9.96527 0.000502077ZM38.465 3.33887H11.5354C11.4103 4.07816 11.2022 4.8028 10.9139 5.4988C10.4111 6.71294 9.67402 7.81614 8.74486 8.7454C7.8157 9.67466 6.71262 10.4118 5.49861 10.9147C4.8024 11.2031 4.07753 11.4113 3.33801 11.5363V18.4712C4.07866 18.5962 4.80464 18.8046 5.50186 19.0934C6.71587 19.5963 7.81895 20.3334 8.74811 21.2627C9.67728 22.192 10.4143 23.2951 10.9172 24.5093C11.2046 25.2033 11.4123 25.9257 11.5375 26.6628H38.4661C38.8113 24.6306 39.7788 22.7396 41.2555 21.2627C42.732 19.786 44.6224 18.8185 46.654 18.4731V11.5352C44.6224 11.1898 42.732 10.2223 41.2555 8.7456C39.7772 7.2671 38.8092 5.37359 38.465 3.33887ZM41.8751 3.33887C42.1706 4.48177 42.767 5.53606 43.6159 6.38502C44.4628 7.23209 45.5142 7.82776 46.654 8.12399V3.33887H41.8751ZM46.654 21.8843C45.5142 22.1805 44.4628 22.7762 43.6159 23.6233C42.7686 24.4706 42.1729 25.5225 41.8768 26.6628H46.654V21.8843ZM8.12682 26.6628C8.0495 26.365 7.95151 26.0723 7.83327 25.7868C7.49816 24.9777 7.00699 24.2425 6.38778 23.6233C5.76859 23.004 5.03349 22.5128 4.22446 22.1776C3.93563 22.058 3.63939 21.9591 3.33801 21.8813V26.6628H8.12682ZM3.33801 8.12593C3.63827 8.04832 3.93342 7.94968 4.22121 7.83046C5.03023 7.49531 5.76533 7.00408 6.38453 6.38482C7.00373 5.76555 7.49491 5.03038 7.83002 4.22127C7.94911 3.93373 8.04766 3.63885 8.12523 3.33887H3.33801V8.12593ZM24.9976 8.33788C21.3176 8.33788 18.3343 11.3214 18.3343 15.0019C18.3343 18.6823 21.3176 21.6658 24.9976 21.6658C28.6776 21.6658 31.6609 18.6823 31.6609 15.0019C31.6609 11.3214 28.6776 8.33788 24.9976 8.33788ZM14.9963 15.0019C14.9963 9.47772 19.474 4.99952 24.9976 4.99952C30.5212 4.99952 34.9989 9.47772 34.9989 15.0019C34.9989 20.526 30.5212 25.0042 24.9976 25.0042C19.474 25.0042 14.9963 20.526 14.9963 15.0019ZM3.3321 33.3313C3.3321 32.4094 4.07934 31.6621 5.0011 31.6621H44.9903C45.9121 31.6621 46.6593 32.4094 46.6593 33.3313C46.6593 34.2532 45.9121 35.0005 44.9903 35.0005H5.0011C4.07934 35.0005 3.3321 34.2532 3.3321 33.3313ZM6.66381 38.3308C6.66381 37.409 7.41105 36.6616 8.33281 36.6616H41.6571C42.5789 36.6616 43.3261 37.409 43.3261 38.3308C43.3261 39.2527 42.5789 40 41.6571 40H8.33281C7.41105 40 6.66381 39.2527 6.66381 38.3308Z" fill="#9298A4"/>
</svg>
