<svg width="26" height="26" viewBox="0 0 26 26" fill="none" xmlns="http://www.w3.org/2000/svg">
<path fill-rule="evenodd" clip-rule="evenodd" d="M12.9966 3.20046C10.7318 3.20046 9.08393 4.91995 9.25642 7.29198C9.43191 9.70238 11.2437 11.4897 12.9966 11.4897C14.7488 11.4897 16.5581 9.70264 16.7369 7.29101C16.9092 4.96588 15.2569 3.20046 12.9966 3.20046ZM7.79809 7.3981C7.5643 4.18342 9.87796 1.73828 12.9966 1.73828C16.1199 1.73828 18.4292 4.23908 18.1951 7.39907C17.9758 10.3578 15.7138 12.9519 12.9966 12.9519C10.2802 12.9519 8.01367 10.3591 7.79809 7.3981ZM2.54505 22.3777C3.46083 17.3031 8.37083 14.739 12.9961 14.739C17.6216 14.739 22.5319 17.3034 23.4478 22.3786C23.5277 22.8214 23.4496 23.293 23.1895 23.6728C22.9182 24.069 22.4715 24.3262 21.9336 24.3262H4.05909C3.52147 24.3262 3.07444 24.0692 2.80283 23.6731C2.54246 23.2934 2.46401 22.8214 2.54505 22.3777ZM12.9961 16.2012C8.78568 16.2012 4.72805 18.5118 3.98384 22.6382L3.98349 22.6401C3.96326 22.7506 3.99179 22.8215 4.00874 22.8463C4.01262 22.8519 4.01713 22.8563 4.01713 22.8563L4.01989 22.8584C4.01989 22.8584 4.02246 22.8597 4.02742 22.8609C4.03244 22.8622 4.04257 22.864 4.05909 22.864H21.9336C21.9501 22.864 21.9602 22.8622 21.9651 22.861C21.9699 22.8598 21.9723 22.8585 21.9723 22.8585L21.9748 22.8567C21.9748 22.8567 21.9792 22.8523 21.9831 22.8466C22.0002 22.8217 22.029 22.7499 22.0088 22.6382M12.9961 16.2012C17.2064 16.2012 21.2641 18.5118 22.0088 22.6382L12.9961 16.2012Z" fill="#202327"/>
</svg>
