<svg width="52" height="66" viewBox="0 0 52 66" fill="none" xmlns="http://www.w3.org/2000/svg">
<path fill-rule="evenodd" clip-rule="evenodd" d="M25.9995 0C27.3069 0 28.3667 1.05697 28.3667 2.36082V41.4375L36.1387 33.6866C37.0631 32.7646 38.562 32.7646 39.4865 33.6866C40.4109 34.6085 40.4109 36.1033 39.4865 37.0253L27.6684 48.8113C26.7439 49.7333 25.2451 49.7333 24.3206 48.8113L12.5025 37.0253C11.5781 36.1033 11.5781 34.6085 12.5025 33.6866C13.427 32.7646 14.9258 32.7646 15.8503 33.6866L23.6322 41.4474V2.36082C23.6322 1.05697 24.6921 0 25.9995 0ZM8.27542 23.5763C7.3363 23.5763 6.43564 23.9483 5.77159 24.6106C5.10753 25.2728 4.73446 26.1711 4.73446 27.1076V57.747C4.73446 58.6836 5.10753 59.5818 5.77159 60.244C6.43564 60.9063 7.3363 61.2784 8.27542 61.2784H43.7246C44.6637 61.2784 45.5644 60.9063 46.2284 60.244C46.8925 59.5818 47.2655 58.6836 47.2655 57.747V27.1076C47.2655 26.1711 46.8925 25.2728 46.2284 24.6106C45.5644 23.9483 44.6637 23.5763 43.7246 23.5763H37.8164C36.509 23.5763 35.4492 22.5193 35.4492 21.2154C35.4492 19.9116 36.509 18.8546 37.8164 18.8546H43.7246C45.9193 18.8546 48.0242 19.7241 49.5762 21.2719C51.1281 22.8196 52 24.9188 52 27.1076V57.747C52 59.9358 51.1281 62.035 49.5762 63.5828C48.0242 65.1305 45.9193 66 43.7246 66H8.27542C6.08065 66 3.97576 65.1305 2.42382 63.5828C0.871872 62.035 0 59.9358 0 57.747V27.1076C0 24.9188 0.871872 22.8196 2.42382 21.2719C3.97576 19.7241 6.08065 18.8546 8.27542 18.8546H14.1836C15.491 18.8546 16.5508 19.9116 16.5508 21.2154C16.5508 22.5193 15.491 23.5763 14.1836 23.5763H8.27542Z" fill="#9298A4"/>
</svg>
