<svg width="64" height="64" viewBox="0 0 64 64" fill="none" xmlns="http://www.w3.org/2000/svg">
<path d="M32 64C14.3554 64 0 49.6446 0 32C0 14.3554 14.3554 0 32 0C49.6446 0 64 14.3554 64 32C64 49.6446 49.6446 64 32 64ZM32 4.92308C17.0769 4.92308 4.92308 17.0769 4.92308 32C4.92308 46.9231 17.0769 59.0769 32 59.0769C46.9231 59.0769 59.0769 46.9308 59.0769 32C59.0769 17.0692 46.9308 4.92308 32 4.92308Z" fill="#979797"/>
<path d="M42.4203 37.5427C39.743 37.5427 37.1565 36.3548 35.1362 34.1991C33.1379 32.0316 31.9431 29.2445 31.7511 26.3026C31.5249 23.1176 32.502 20.1864 34.5023 18.0522C36.5025 15.9181 39.2983 14.7702 42.4203 14.7702C45.5192 14.7702 48.3242 15.9427 50.3183 18.0722C52.3125 20.2018 53.3142 23.1499 53.088 26.3057C52.8924 29.2458 51.698 32.0308 49.7029 34.1991C47.681 36.3548 45.0961 37.5427 42.4203 37.5427Z" fill="#979797"/>
<path d="M17.8267 38.0611C13.2475 38.0611 9.22082 33.8282 8.85153 28.6244C8.66228 25.9594 9.49009 23.4959 11.1857 21.688C12.8813 19.88 15.2201 18.9184 17.8251 18.9184C20.4301 18.9184 22.7674 19.9093 24.4522 21.7095C26.1371 23.5098 26.991 25.9901 26.7987 28.6336C26.4233 33.8297 22.3981 38.0611 17.8267 38.0611Z" fill="#979797"/>
<path d="M57.2908 47.275C57.0462 46.5519 56.4508 45.7812 55.257 45.0504C51.6477 42.8458 47.2077 41.6796 42.4139 41.6796C37.7108 41.6796 33.1477 42.895 29.5631 45.1027C25.5247 47.5904 22.8108 51.2181 21.717 55.5919C21.4585 56.6212 21.0816 58.5365 21.4847 59.6088C27.9531 62.0686 35.0795 62.1815 41.6225 59.9277C48.1656 57.674 53.7093 53.1965 57.2908 47.275Z" fill="#979797"/>
<path d="M17.7909 54.3654C18.8788 50.0248 21.1945 46.4058 24.7873 43.4792C24.9571 43.3391 25.0863 43.156 25.1613 42.949C25.2363 42.7419 25.2544 42.5186 25.2137 42.3022C25.173 42.0858 25.075 41.8843 24.9299 41.7186C24.7848 41.553 24.5979 41.4293 24.3888 41.3605C22.5424 40.7712 20.4344 40.4557 17.8201 40.4557C14.155 40.4557 10.2637 41.4482 7.33557 43.2515C6.50468 43.7639 5.68918 43.9608 5.0614 44.1363C7.58187 49.7069 11.7617 54.3629 17.0293 57.4674L17.3047 57.4459C17.3649 56.4055 17.5278 55.3737 17.7909 54.3654Z" fill="#979797"/>
</svg>
