<svg width="60" height="60" viewBox="0 0 60 60" fill="none" xmlns="http://www.w3.org/2000/svg">
<path fill-rule="evenodd" clip-rule="evenodd" d="M2.00312 0C3.10942 0 4.00625 0.896829 4.00625 2.00312V55.9937H57.9969C59.1032 55.9937 60 56.8906 60 57.9969C60 59.1032 59.1032 60 57.9969 60H4.0029C2.94126 60 1.92311 59.5783 1.17242 58.8276C0.421731 58.0769 0 57.0587 0 55.9971V2.00312C0 0.896829 0.896829 0 2.00312 0ZM48.4532 14.0039C48.179 14.0039 47.9566 14.2263 47.9566 14.5005V47.4969C47.9566 47.7711 48.179 47.9935 48.4532 47.9935H53.4527C53.7269 47.9935 53.9493 47.7711 53.9493 47.4969V14.5005C53.9493 14.2263 53.7269 14.0039 53.4527 14.0039H48.4532ZM43.9504 14.5005C43.9504 12.0137 45.9664 9.99768 48.4532 9.99768H53.4527C55.9395 9.99768 57.9555 12.0137 57.9555 14.5005V47.4969C57.9555 49.9837 55.9395 51.9997 53.4527 51.9997H48.4532C45.9664 51.9997 43.9504 49.9837 43.9504 47.4969V14.5005ZM30.5021 22.0047C30.2278 22.0047 30.0055 22.227 30.0055 22.5013V47.4985C30.0055 47.7728 30.2278 47.9951 30.5021 47.9951H35.5015C35.7758 47.9951 35.9981 47.7728 35.9981 47.4985V22.5013C35.9981 22.227 35.7758 22.0047 35.5015 22.0047H30.5021ZM25.9992 22.5013C25.9992 20.0145 28.0152 17.9985 30.5021 17.9985H35.5015C37.9884 17.9985 40.0044 20.0145 40.0044 22.5013V47.4985C40.0044 49.9854 37.9884 52.0014 35.5015 52.0014H30.5021C28.0152 52.0014 25.9992 49.9854 25.9992 47.4985V22.5013ZM12.5045 28.0014C12.23 28.0014 12.0075 28.2239 12.0075 28.4983V47.4989C12.0075 47.7734 12.23 47.9959 12.5045 47.9959H17.5046C17.7791 47.9959 18.0016 47.7734 18.0016 47.4989V28.4983C18.0016 28.2239 17.7791 28.0014 17.5046 28.0014H12.5045ZM8.00127 28.4983C8.00127 26.0113 10.0174 23.9951 12.5045 23.9951H17.5046C19.9917 23.9951 22.0078 26.0113 22.0078 28.4983V47.4989C22.0078 49.986 19.9917 52.0021 17.5046 52.0021H12.5045C10.0174 52.0021 8.00127 49.986 8.00127 47.4989V28.4983Z" fill="#9298A4"/>
</svg>
