<svg width="30" height="30" viewBox="0 0 30 30" fill="none" xmlns="http://www.w3.org/2000/svg">
<path d="M29.032 27.8694L21.966 20.6571C23.7175 18.4776 24.7732 15.6857 24.7732 12.6429C24.7732 5.66327 19.2247 0 12.3866 0C5.54248 0 0 5.66327 0 12.6429C0 19.6224 5.54248 25.2857 12.3866 25.2857C15.3678 25.2857 18.097 24.2143 20.2324 22.4265L27.2985 29.6327C27.7784 30.1225 28.5522 30.1225 29.032 29.6327C29.5119 29.149 29.5119 28.3531 29.032 27.8694ZM12.3866 22.7694C6.9101 22.7694 2.45932 18.2265 2.45932 12.6429C2.45932 7.05918 6.9101 2.5102 12.3866 2.5102C17.8571 2.5102 22.3139 7.05918 22.3139 12.6429C22.3139 18.2265 17.8571 22.7694 12.3866 22.7694Z" fill="#718EBF"/>
</svg>
