<svg width="38" height="38" viewBox="0 0 38 38" fill="none" xmlns="http://www.w3.org/2000/svg">
<g clip-path="url(#clip0_130_1830)">
<path d="M20.1924 38H17.8075C15.8787 38 14.3093 36.4307 14.3093 34.5018V33.695C13.4893 33.433 12.6925 33.1023 11.9271 32.7062L11.3553 33.278C9.97047 34.6645 7.75215 34.6239 6.40753 33.2775L4.72195 31.592C3.37495 30.2464 3.33621 28.0289 4.72239 26.6442L5.29373 26.0728C4.89762 25.3074 4.56698 24.5108 4.30491 23.6906H3.49815C1.56936 23.6906 0 22.1213 0 20.1925V17.8075C0 15.8787 1.56936 14.3094 3.49823 14.3094H4.30498C4.56705 13.4893 4.8977 12.6926 5.2938 11.9272L4.72202 11.3555C3.33665 9.97159 3.37488 7.75378 4.72247 6.40768L6.4082 4.72202C7.75593 3.37243 9.97374 3.33873 11.3559 4.72247L11.9272 5.29373C12.6926 4.8977 13.4893 4.56698 14.3094 4.30491V3.49815C14.3094 1.56928 15.8787 0 17.8076 0H20.1925C22.1213 0 23.6906 1.56928 23.6906 3.49815V4.30498C24.5107 4.56698 25.3074 4.8977 26.0728 5.2938L26.6446 4.72202C28.0295 3.33546 30.2478 3.37614 31.5924 4.72254L33.278 6.40805C34.625 7.75356 34.6637 9.97114 33.2775 11.3558L32.7062 11.9272C33.1023 12.6926 33.4329 13.4892 33.695 14.3094H34.5018C36.4306 14.3094 38 15.8787 38 17.8075V20.1925C38 22.1213 36.4306 23.6906 34.5018 23.6906H33.695C33.4329 24.5107 33.1023 25.3074 32.7062 26.0728L33.278 26.6446C34.6633 28.0285 34.6251 30.2463 33.2775 31.5924L31.5918 33.2781C30.2441 34.6276 28.0263 34.6613 26.6441 33.2776L26.0728 32.7063C25.3074 33.1024 24.5107 33.4331 23.6906 33.6952V34.502C23.6906 36.4307 22.1213 38 20.1924 38ZM12.2993 30.3681C13.3626 30.9969 14.5071 31.472 15.7008 31.7801C16.1925 31.9069 16.5359 32.3503 16.5359 32.8581V34.5018C16.5359 35.203 17.1065 35.7734 17.8076 35.7734H20.1925C20.8936 35.7734 21.4641 35.203 21.4641 34.5018V32.8581C21.4641 32.3503 21.8076 31.9069 22.2992 31.7801C23.493 31.472 24.6374 30.9969 25.7008 30.3681C26.1383 30.1094 26.6953 30.1797 27.0547 30.5392L28.2191 31.7036C28.7211 32.2062 29.5273 32.1945 30.017 31.7041L31.7037 30.0174C32.1922 29.5295 32.2086 28.7232 31.7042 28.2195L30.5393 27.0546C30.1799 26.6952 30.1096 26.1381 30.3682 25.7007C30.9971 24.6374 31.4721 23.493 31.7802 22.2992C31.9071 21.8075 32.3505 21.4641 32.8581 21.4641H34.5018C35.203 21.4641 35.7735 20.8937 35.7735 20.1925V17.8076C35.7735 17.1065 35.203 16.536 34.5018 16.536H32.8581C32.3504 16.536 31.9071 16.1925 31.7802 15.701C31.4721 14.5072 30.997 13.3627 30.3682 12.2995C30.1096 11.862 30.1799 11.3049 30.5393 10.9456L31.7037 9.78114C32.2071 9.27838 32.1939 8.47237 31.7042 7.98319L30.0175 6.29657C29.5287 5.80702 28.7224 5.7927 28.2196 6.29612L27.0548 7.46099C26.6954 7.82043 26.1382 7.89079 25.7008 7.63206C24.6375 7.00321 23.4931 6.52813 22.2993 6.22005C21.8077 6.09321 21.4642 5.64983 21.4642 5.1421V3.49815C21.4642 2.79701 20.8937 2.22656 20.1925 2.22656H17.8077C17.1065 2.22656 16.536 2.79701 16.536 3.49815V5.14195C16.536 5.64968 16.1925 6.09306 15.7009 6.2199C14.5072 6.52798 13.3627 7.00306 12.2994 7.63191C11.8618 7.89057 11.3048 7.82021 10.9454 7.46084L9.78107 6.29642C9.27905 5.79381 8.47281 5.80547 7.98319 6.2959L6.29642 7.9826C5.80791 8.47051 5.79159 9.27675 6.29598 9.78055L7.46084 10.9454C7.82021 11.3048 7.89057 11.8619 7.63191 12.2993C7.00306 13.3626 6.52806 14.507 6.21998 15.7008C6.09306 16.1925 5.64968 16.5359 5.14202 16.5359H3.49823C2.79708 16.5359 2.22656 17.1064 2.22656 17.8075V20.1925C2.22656 20.8936 2.79708 21.4641 3.49823 21.4641H5.14195C5.64968 21.4641 6.09299 21.8075 6.2199 22.2991C6.52798 23.4929 7.00306 24.6374 7.63184 25.7006C7.89049 26.1381 7.82013 26.6951 7.46077 27.0545L6.29635 28.2189C5.793 28.7217 5.80613 29.5277 6.2959 30.0169L7.98252 31.7035C8.4714 32.1931 9.27772 32.2074 9.78047 31.7039L10.9453 30.5391C11.2101 30.2743 11.761 30.0497 12.2993 30.3681Z" fill="#718EBF"/>
<path d="M18.9999 27.2684C14.4409 27.2684 10.7319 23.5594 10.7319 19.0004C10.7319 14.4414 14.4409 10.7324 18.9999 10.7324C23.5589 10.7324 27.2679 14.4414 27.2679 19.0004C27.2679 23.5594 23.5589 27.2684 18.9999 27.2684ZM18.9999 12.959C15.6686 12.959 12.9585 15.6692 12.9585 19.0004C12.9585 22.3316 15.6687 25.0418 18.9999 25.0418C22.3311 25.0418 25.0413 22.3316 25.0413 19.0004C25.0413 15.6692 22.3312 12.959 18.9999 12.959Z" fill="#718EBF"/>
</g>
<defs>
<clipPath id="clip0_130_1830">
<rect width="38" height="38" fill="white"/>
</clipPath>
</defs>
</svg>
