<svg width="60" height="60" viewBox="0 0 60 60" fill="none" xmlns="http://www.w3.org/2000/svg">
<path d="M36.8327 29.9993H57.3327M36.8327 43.666H57.3327M36.8327 57.3327H57.3327M2.66602 6.08268C2.66602 5.17653 3.02599 4.30748 3.66673 3.66673C4.30748 3.02599 5.17653 2.66602 6.08268 2.66602H53.916C54.8222 2.66602 55.6912 3.02599 56.332 3.66673C56.9727 4.30748 57.3327 5.17653 57.3327 6.08268V12.916C57.3327 13.8222 56.9727 14.6912 56.332 15.332C55.6912 15.9727 54.8222 16.3327 53.916 16.3327H6.08268C5.17653 16.3327 4.30748 15.9727 3.66673 15.332C3.02599 14.6912 2.66602 13.8222 2.66602 12.916V6.08268ZM2.66602 33.416C2.66602 32.5099 3.02599 31.6408 3.66673 31.0001C4.30748 30.3593 5.17653 29.9993 6.08268 29.9993H19.7493C20.6555 29.9993 21.5245 30.3593 22.1653 31.0001C22.806 31.6408 23.166 32.5099 23.166 33.416V53.916C23.166 54.8222 22.806 55.6912 22.1653 56.332C21.5245 56.9727 20.6555 57.3327 19.7493 57.3327H6.08268C5.17653 57.3327 4.30748 56.9727 3.66673 56.332C3.02599 55.6912 2.66602 54.8222 2.66602 53.916V33.416Z" stroke="#9298A4" stroke-width="5" stroke-linecap="round" stroke-linejoin="round"/>
</svg>
