<svg width="74" height="74" viewBox="0 0 74 74" fill="none" xmlns="http://www.w3.org/2000/svg">
<path fill-rule="evenodd" clip-rule="evenodd" d="M44.164 0.897618C44.739 0.32287 45.5187 1.212e-06 46.3318 1.212e-06C47.1448 1.212e-06 47.9245 0.32287 48.4995 0.897618L55.2956 7.70147C55.2976 7.70347 55.2997 7.70548 55.3017 7.70749C55.8469 8.25092 56.1676 8.97978 56.1997 9.74908C56.232 10.5212 55.9713 11.277 55.4698 11.865L55.4676 11.8676L55.4654 11.8702C54.689 12.7754 54.2829 13.9403 54.3284 15.132C54.3738 16.323 54.8669 17.453 55.7092 18.2962C56.5537 19.1367 57.6841 19.6278 58.8749 19.6713C60.0665 19.7149 61.2307 19.3071 62.1347 18.5294L62.1387 18.5259L62.1427 18.5225C62.7306 18.021 63.4865 17.7602 64.2586 17.7925C65.0284 17.8247 65.7576 18.1458 66.3012 18.6916C66.3029 18.6933 66.3046 18.695 66.3062 18.6967L73.1024 25.4928C73.6771 26.0678 74 26.8475 74 27.6605C74 28.4736 73.6771 29.2533 73.1024 29.8283L62.2581 40.6726C61.5878 41.343 60.7705 41.8483 59.8713 42.1483C59.6977 42.2066 59.54 42.3045 59.4106 42.4342C59.2811 42.5642 59.1837 42.7225 59.126 42.8967L59.1252 42.899L59.1245 42.9012C58.8247 43.801 58.3199 44.6188 57.6499 45.29L29.836 73.1024C29.261 73.6771 28.4813 74 27.6682 74C26.8552 74 26.0755 73.6771 25.5005 73.1024L18.7044 66.3062C18.7027 66.3046 18.701 66.3029 18.6993 66.3012C18.1535 65.7576 17.8324 65.0284 17.8002 64.2586C17.768 63.4865 18.0287 62.7307 18.5302 62.1427L18.5329 62.1395L18.5357 62.1363C19.3128 61.2314 19.7195 60.0664 19.6743 58.8744C19.6291 57.6825 19.1353 56.5516 18.2919 55.7081C17.4484 54.8647 16.3175 54.3709 15.1256 54.3257C13.9336 54.2805 12.7686 54.6872 11.8637 55.4643L11.8605 55.4671L11.8573 55.4698C11.2693 55.9713 10.5135 56.232 9.74137 56.1997C8.97234 56.1676 8.24372 55.8471 7.70036 55.3023C7.69815 55.3 7.69596 55.2978 7.69376 55.2956L0.897617 48.4995C0.322869 47.9245 0 47.1448 0 46.3318C0 45.5187 0.322869 44.739 0.897617 44.164L28.71 16.3578C29.3804 15.6887 30.197 15.1843 31.0955 14.8843M46.331 5.70743L36.8076 15.2308C36.6787 15.3597 36.5815 15.5169 36.5238 15.6898C36.2251 16.5902 35.721 17.4088 35.0513 18.0807C34.3806 18.7536 33.5625 19.2609 32.6616 19.5625L32.66 19.563L32.6583 19.5636C32.484 19.6217 32.3255 19.7194 32.1954 19.8492L5.70683 46.3319L10.079 50.704C11.6537 49.7861 13.4673 49.3259 15.3125 49.3959C17.7473 49.4882 20.0574 50.4968 21.7803 52.2197C23.5032 53.9426 24.5118 56.2527 24.6041 58.6875C24.6741 60.5327 24.2139 62.3463 23.296 63.9211L27.6683 68.2933L54.1581 41.805C54.2875 41.6754 54.3851 41.5177 54.4433 41.3441C54.742 40.4431 55.2463 39.624 55.9164 38.9516C56.587 38.2788 57.4052 37.7714 58.306 37.4699L58.3096 37.4687C58.4828 37.411 58.6401 37.3137 58.7692 37.1847L68.2933 27.6605L63.9219 23.2891C62.3494 24.2073 60.538 24.6688 58.6945 24.6014C56.2607 24.5124 53.9502 23.5079 52.2251 21.7889L52.2233 21.7872L52.2216 21.7855C50.4997 20.063 49.4915 17.7539 49.3986 15.3201C49.3282 13.475 49.7878 11.6614 50.7051 10.0865L46.331 5.70743Z" fill="#9298A4"/>
<path fill-rule="evenodd" clip-rule="evenodd" d="M73.1024 29.836C73.6771 29.261 74 28.4813 74 27.6682C74 26.8552 73.6771 26.0755 73.1024 25.5005L66.2985 18.7044C66.2965 18.7024 66.2945 18.7003 66.2925 18.6983C65.7491 18.1531 65.0202 17.8324 64.2509 17.8003C63.4788 17.768 62.7227 18.0278 62.1347 18.5294L62.1324 18.5324L62.1298 18.5346C61.2246 19.311 60.0597 19.7171 58.868 19.6716C57.677 19.6262 56.5471 19.1331 55.7038 18.2908C54.8633 17.4463 54.3722 16.3159 54.3287 15.1251C54.2851 13.9335 54.6921 12.769 55.4698 11.865L55.4741 11.8613L55.4775 11.8573C55.979 11.2694 56.2398 10.5135 56.2075 9.74137C56.1753 8.97165 55.8542 8.24238 55.3084 7.69883C55.3067 7.69714 55.305 7.69545 55.3033 7.69376L48.5072 0.897618C47.9322 0.322896 47.1525 9.69549e-09 46.3395 0C45.5264 -9.69549e-09 44.7467 0.322896 44.1717 0.897618L33.3274 11.7419C32.6571 12.4122 32.1517 13.2295 31.8517 14.1287C31.7934 14.3023 31.6955 14.46 31.5658 14.5894C31.4358 14.7189 31.2775 14.8163 31.1033 14.874L31.101 14.8748L31.0988 14.8755C30.199 15.1753 29.3813 15.6801 28.71 16.3501L0.897617 44.164C0.322869 44.739 0 45.5187 0 46.3318C0 47.1448 0.322869 47.9245 0.897617 48.4995L7.69376 55.2956C7.69545 55.2973 7.69715 55.299 7.69884 55.3007C8.24238 55.8465 8.97164 56.1676 9.74137 56.1997C10.5135 56.232 11.2693 55.9713 11.8573 55.4698L11.8605 55.4671L11.8637 55.4643C12.7686 54.6872 13.9336 54.2805 15.1256 54.3257C16.3175 54.3709 17.4484 54.8647 18.2919 55.7081C19.1353 56.5516 19.6291 57.6825 19.6743 58.8744C19.7195 60.0664 19.3128 61.2314 18.5357 62.1363L18.5329 62.1395L18.5302 62.1427C18.0287 62.7307 17.768 63.4865 17.8002 64.2586C17.8324 65.0276 18.1529 65.7563 18.6978 66.2996C18.7 66.3018 18.7022 66.304 18.7044 66.3062L25.5005 73.1024C26.0755 73.6771 26.8552 74 27.6682 74C28.4813 74 29.261 73.6771 29.836 73.1024L57.6422 45.29C58.3113 44.6196 58.8157 43.803 59.1157 42.9045M68.2926 27.669L58.7692 37.1924C58.6403 37.3213 58.4831 37.4185 58.3102 37.4762C57.4098 37.7749 56.5912 38.279 55.9193 38.9487C55.2464 39.6194 54.7391 40.4375 54.4375 41.3384L54.437 41.34L54.4364 41.3417C54.3783 41.516 54.2806 41.6745 54.1508 41.8046L27.6683 68.2933L23.296 63.9211C24.2139 62.3463 24.6741 60.5327 24.6041 58.6875C24.5118 56.2527 23.5032 53.9426 21.7803 52.2197C20.0574 50.4968 17.7473 49.4882 15.3125 49.3959C13.4673 49.3259 11.6537 49.7861 10.079 50.704L5.70683 46.3319L32.195 19.8419C32.3246 19.7125 32.4823 19.6149 32.6559 19.5567C33.5569 19.258 34.376 18.7537 35.0484 18.0836C35.7212 17.413 36.2286 16.5948 36.5302 15.694L36.5314 15.6904C36.589 15.5172 36.6863 15.3599 36.8153 15.2308L46.3395 5.70669L50.7109 10.0781C49.7927 11.6506 49.3312 13.462 49.3986 15.3055C49.4876 17.7393 50.4921 20.0498 52.2111 21.7749L52.2128 21.7767L52.2145 21.7784C53.937 23.5003 56.2461 24.5085 58.6799 24.6014C60.525 24.6718 62.3386 24.2122 63.9135 23.2949L68.2926 27.669Z" fill="#9298A4"/>
<path fill-rule="evenodd" clip-rule="evenodd" d="M31.8626 14.8949C32.8259 13.9316 34.3877 13.9316 35.351 14.8949L37.8963 17.4402C38.8596 18.4035 38.8596 19.9653 37.8963 20.9286C36.933 21.8919 35.3712 21.8919 34.4079 20.9286L31.8626 18.3833C30.8993 17.42 30.8993 15.8582 31.8626 14.8949ZM39.4962 22.5316C40.459 21.5679 42.0208 21.5672 42.9846 22.53L44.6819 24.2259C45.6457 25.1887 45.6464 26.7505 44.6835 27.7143C43.7207 28.678 42.1588 28.6787 41.1951 27.7159L39.4977 26.02C38.534 25.0572 38.5333 23.4953 39.4962 22.5316ZM46.2857 29.3165C47.2495 28.3536 48.8113 28.3543 49.7741 29.3181L51.47 31.0154C52.4328 31.9792 52.4321 33.541 51.4684 34.5039C50.5047 35.4667 48.9428 35.466 47.98 34.5023L46.2841 32.8049C45.3213 31.8411 45.322 30.2793 46.2857 29.3165ZM53.0714 36.1037C54.0347 35.1404 55.5965 35.1404 56.5598 36.1037L59.1051 38.649C60.0684 39.6123 60.0684 41.1741 59.1051 42.1374C58.1418 43.1007 56.58 43.1007 55.6167 42.1374L53.0714 39.5921C52.1081 38.6288 52.1081 37.067 53.0714 36.1037Z" fill="#9298A4"/>
</svg>
