<svg width="80" height="64" viewBox="0 0 80 64" fill="none" xmlns="http://www.w3.org/2000/svg">
<path d="M71.7731 1.01462C69.3379 0.00577533 66.6583 -0.258185 64.0732 0.25612C61.488 0.770425 59.1134 2.0399 57.2496 3.904C55.3858 5.7681 54.1166 8.14311 53.6023 10.7287C53.0881 13.3143 53.352 15.9943 54.3607 18.4299C55.3694 20.8654 57.0775 22.9472 59.2691 24.4118C61.4607 25.8764 64.0373 26.6581 66.6731 26.6581C70.2062 26.6554 73.5959 25.2504 76.0942 22.7517C78.5925 20.253 79.9972 16.8648 80 13.3312C80 10.6949 79.2184 8.11579 77.754 5.92384C76.2896 3.73188 74.2083 2.02347 71.7731 1.01462Z" fill="#FF4F00"/>
<path d="M9.3334 5.32073C6.85803 5.32073 4.48404 6.30423 2.73369 8.05487C0.983338 9.80551 0 12.1799 0 14.6557V54.6651C0 57.1408 0.983338 59.5152 2.73369 61.2659C4.48404 63.0165 6.85803 64 9.3334 64H65.1256C67.601 64 69.975 63.0165 71.7253 61.2659C73.4757 59.5152 74.459 57.1408 74.459 54.6651V31.8264C74.459 30.3536 73.2653 29.1597 71.7927 29.1597C70.3202 29.1597 69.1265 30.3536 69.1265 31.8264V54.6651C69.1265 55.7263 68.705 56.7441 67.9547 57.4946C67.2043 58.245 66.1867 58.6666 65.1256 58.6666H9.3334C8.27231 58.6666 7.25468 58.245 6.50437 57.4946C5.75406 56.7441 5.33254 55.7263 5.33254 54.6651V14.6557C5.33254 13.5944 5.75406 12.5766 6.50437 11.8262C7.25467 11.0757 8.27231 10.6542 9.3334 10.6542H48.0028C49.4753 10.6542 50.669 9.46022 50.669 7.98744C50.669 6.51466 49.4753 5.32073 48.0028 5.32073H9.3334Z" fill="#979797"/>
<path d="M14.9683 16.5513C13.8059 15.6471 12.1308 15.8565 11.2267 17.019C10.3227 18.1816 10.5321 19.857 11.6944 20.7612L35.6961 39.4323C36.6476 40.1724 37.9773 40.1821 38.9394 39.4557L53.4404 28.5081C54.6157 27.6208 54.8493 25.9486 53.9621 24.7731C53.075 23.5976 51.403 23.364 50.2277 24.2513L37.3573 33.9678L14.9683 16.5513Z" fill="#979797"/>
</svg>
