<svg width="24" height="24" viewBox="0 0 24 24" fill="none" xmlns="http://www.w3.org/2000/svg">
<path fill-rule="evenodd" clip-rule="evenodd" d="M5.84954 1.11517C6.01221 1.24293 6.19811 1.41747 6.41799 1.63466C6.87669 2.08621 7.41595 2.81769 7.88394 3.52933C8.35628 4.24759 8.79155 5.00022 9.03352 5.51931C9.174 5.82142 9.29717 6.08799 9.38298 6.31934C9.4699 6.55366 9.5375 6.79958 9.53794 7.06296C9.53885 7.61142 9.24341 8.04072 8.92156 8.47894C8.83652 8.59472 8.76187 8.69277 8.69586 8.77947C8.54566 8.97676 8.44005 9.11548 8.35776 9.27157C8.26892 9.44011 8.23792 9.58011 8.28212 9.78599C8.33868 10.0495 8.57041 10.5834 8.99935 11.2612C9.41708 11.9213 9.98841 12.665 10.6715 13.3459C11.3545 14.0267 12.0867 14.5833 12.7342 14.9866C13.3972 15.3995 13.9222 15.6213 14.1914 15.6787C14.4017 15.7235 14.5452 15.6921 14.7142 15.6042C14.8756 15.5201 15.0222 15.4083 15.2336 15.2468C15.3127 15.1864 15.4009 15.1191 15.5024 15.0436C15.9491 14.7118 16.3912 14.3873 16.9444 14.3879C17.2167 14.3882 17.4657 14.465 17.6967 14.5593C17.9192 14.6501 18.1767 14.7798 18.4682 14.9267L18.4879 14.9366C18.9864 15.188 19.7322 15.6163 20.455 16.0839C21.1675 16.5449 21.908 17.076 22.3638 17.5353C22.5814 17.755 22.7567 17.9413 22.8847 18.1038C23.0093 18.2619 23.1341 18.4523 23.1863 18.6824C23.2445 18.9393 23.1926 19.154 23.1355 19.3104C23.1095 19.3818 23.0783 19.4514 23.0542 19.5051C23.0505 19.5133 23.0469 19.5213 23.0433 19.5292C23.021 19.5787 23.0006 19.624 22.979 19.6757L22.9782 19.6776C22.7698 20.1717 22.5164 20.6456 22.221 21.0931L22.2196 21.0953C21.6412 21.9643 21.1087 22.5153 20.2859 22.8985C19.8609 23.0965 19.2535 23.2983 18.2979 23.1791C17.3725 23.0637 16.152 22.6517 14.468 21.7085C11.7677 20.1941 9.89897 18.8917 7.48493 16.4844C5.07658 14.0828 3.89679 12.5206 2.23848 9.50807C0.571231 6.47926 0.601513 4.66044 1.04767 3.70706C1.4324 2.88494 1.9888 2.35492 2.85544 1.77915L2.85821 1.7773C3.30633 1.48288 3.78048 1.23012 4.27471 1.02218L4.27736 1.02106C4.32939 0.999438 4.37511 0.978948 4.42489 0.956635C4.43266 0.95315 4.44053 0.949621 4.44854 0.946036C4.50247 0.921905 4.57209 0.890915 4.64349 0.864979C4.79974 0.808222 5.01415 0.756558 5.27061 0.814386C5.50062 0.86625 5.69111 0.990736 5.84954 1.11517ZM4.77753 2.22069C4.35739 2.39755 3.95429 2.61244 3.57326 2.86266C2.81588 3.36601 2.47068 3.73266 2.22486 4.25795C2.04032 4.6523 1.78724 5.9931 3.37709 8.88131C4.9759 11.7858 6.08126 13.2492 8.40268 15.5641C10.7183 17.8733 12.4868 19.1071 15.1031 20.5745C16.7077 21.4732 17.7622 21.8025 18.4587 21.8894C19.1249 21.9724 19.4861 21.8373 19.7371 21.7204C20.2658 21.4741 20.634 21.1315 21.1369 20.3763C21.3877 19.9959 21.6031 19.5933 21.7802 19.1734C21.8091 19.1043 21.8373 19.042 21.8593 18.9932C21.8626 18.9858 21.8658 18.9786 21.8689 18.9719C21.875 18.9584 21.8803 18.9464 21.885 18.9358C21.8787 18.9274 21.8716 18.9181 21.8636 18.908C21.7847 18.8078 21.6549 18.6666 21.441 18.4505C21.0903 18.0973 20.4512 17.6295 19.749 17.1751C19.0569 16.7274 18.3522 16.3238 17.9032 16.0973C17.5858 15.9375 17.3744 15.8316 17.2055 15.7626C17.0401 15.6951 16.9717 15.6877 16.9431 15.6876C16.8946 15.6876 16.8008 15.6981 16.2777 16.0868M4.77753 2.22069C4.8469 2.19184 4.90941 2.16379 4.95833 2.14184C4.96568 2.13855 4.97272 2.13538 4.97944 2.13238C4.99395 2.12589 5.00668 2.12023 5.01794 2.11529C5.02658 2.1217 5.03618 2.12901 5.04676 2.13732C5.14703 2.21607 5.22005 2.01905 5.43638 2.23274C5.79302 2.58361 6.34043 3.54768 6.79799 4.24347C7.25152 4.93312 7.65008 5.62775 7.85549 6.06843C8.00192 6.38331 8.10029 6.59853 8.1644 6.77137C8.22742 6.94124 8.23815 7.02191 8.23822 7.06511C8.23833 7.12984 8.22349 7.23374 7.87404 7.70955C7.82764 7.77272 7.77617 7.84023 7.72227 7.91094C7.54643 8.14161 7.34463 8.40632 7.20802 8.66548C6.99992 9.06024 6.89355 9.51006 7.01135 10.0588C7.11678 10.5499 7.4477 11.2398 7.90109 11.9562C8.36568 12.6904 8.99634 13.5112 9.75392 14.2664C10.5116 15.0217 11.3224 15.6384 12.047 16.0898C12.7561 16.5314 13.4323 16.8457 13.9203 16.9498C14.4671 17.0664 14.9173 16.9637 15.3143 16.757C15.585 16.6162 15.856 16.4085 16.0928 16.2271C16.1572 16.1778 16.2191 16.1303 16.2777 16.0868" fill="#27AE60"/>
</svg>
