<svg width="22" height="22" viewBox="0 0 22 22" fill="none" xmlns="http://www.w3.org/2000/svg">
<path fill-rule="evenodd" clip-rule="evenodd" d="M14.2496 1.25038C14.2496 0.800901 14.6139 0.436523 15.0634 0.436523H20.7532C21.2027 0.436523 21.5671 0.800901 21.5671 1.25038V6.9402C21.5671 7.38968 21.2027 7.75406 20.7532 7.75406C20.3038 7.75406 19.9394 7.38968 19.9394 6.9402V3.21244L9.94947 13.2023C9.63163 13.5202 9.11633 13.5202 8.79849 13.2023C8.48066 12.8845 8.48066 12.3692 8.79849 12.0514L18.7856 2.06424H15.0634C14.6139 2.06424 14.2496 1.69987 14.2496 1.25038ZM3.282 5.31373C2.95913 5.31373 2.64948 5.44199 2.42117 5.6703C2.19287 5.8986 2.06461 6.20825 2.06461 6.53112V18.7186C2.06461 19.0415 2.19287 19.3511 2.42117 19.5795C2.64948 19.8078 2.95913 19.936 3.282 19.936H15.4695C15.6294 19.936 15.7877 19.9045 15.9354 19.8433C16.0831 19.7822 16.2173 19.6925 16.3303 19.5795C16.4434 19.4664 16.533 19.3322 16.5942 19.1845C16.6554 19.0368 16.6869 18.8785 16.6869 18.7186V9.37488C16.6869 8.92539 17.0513 8.56102 17.5008 8.56102C17.9502 8.56102 18.3146 8.92539 18.3146 9.37488V18.7186C18.3146 19.0923 18.241 19.4622 18.098 19.8074C17.9551 20.1526 17.7455 20.4662 17.4813 20.7304C17.2171 20.9946 16.9035 21.2042 16.5583 21.3472C16.2131 21.4901 15.8431 21.5637 15.4695 21.5637H3.282C2.52743 21.5637 1.80376 21.264 1.2702 20.7304C0.736641 20.1969 0.43689 19.4732 0.43689 18.7186V6.53112C0.43689 5.77656 0.736641 5.05289 1.2702 4.51933C1.80376 3.98577 2.52743 3.68601 3.282 3.68601H11.7868C12.2363 3.68601 12.6007 4.05039 12.6007 4.49987C12.6007 4.94936 12.2363 5.31373 11.7868 5.31373H3.282Z" fill="#2F80ED"/>
</svg>
