<svg width="24" height="18" viewBox="0 0 24 18" fill="none" xmlns="http://www.w3.org/2000/svg">
<path fill-rule="evenodd" clip-rule="evenodd" d="M3.46877 1.68924C2.79642 1.68924 2.25138 2.23429 2.25138 2.90663V15.0941C2.25138 15.7665 2.79642 16.3115 3.46877 16.3115H20.5313C21.2036 16.3115 21.7487 15.7665 21.7487 15.0941V2.90663C21.7487 2.23429 21.2036 1.68924 20.5313 1.68924H3.46877ZM0.623657 2.90663C0.623657 1.33532 1.89746 0.0615234 3.46877 0.0615234H20.5313C22.1026 0.0615234 23.3764 1.33532 23.3764 2.90663V15.0941C23.3764 16.6654 22.1026 17.9392 20.5313 17.9392H3.46877C1.89746 17.9392 0.623657 16.6654 0.623657 15.0941V2.90663ZM4.04597 3.6261C4.32193 3.27131 4.83326 3.20739 5.18806 3.48334L12.0009 8.78222L18.8137 3.48334C19.1685 3.20739 19.6799 3.27131 19.9558 3.6261C20.2318 3.9809 20.1679 4.49223 19.8131 4.76819L12.5006 10.4557C12.2067 10.6843 11.7951 10.6843 11.5012 10.4557L4.18873 4.76819C3.83393 4.49223 3.77002 3.9809 4.04597 3.6261Z" fill="#EB5757"/>
</svg>
